<svg width="352" height="87" viewBox="0 0 352 87" fill="none" xmlns="http://www.w3.org/2000/svg">
<path d="M62.9532 36.5391C62.9532 36.9141 62.8829 37.3008 62.7423 37.6992C62.6251 38.0977 62.4728 38.4609 62.2853 38.7891C61.9806 38.8359 61.6993 38.9414 61.4415 39.1055C61.2072 39.2695 61.0197 39.375 60.879 39.4219C60.5743 39.4688 60.2111 39.4922 59.7892 39.4922C59.3907 39.4688 59.0275 39.4688 58.6993 39.4922C58.0665 39.5391 57.4337 39.6094 56.8009 39.7031C56.1915 39.7969 55.5822 39.9141 54.9728 40.0547C54.9259 40.0547 54.879 40.0664 54.8322 40.0898C54.7853 40.0898 54.7618 40.1133 54.7618 40.1602C54.7618 40.207 54.7736 40.2539 54.797 40.3008C54.8204 40.3477 54.8322 40.3945 54.8322 40.4414C54.8322 40.5117 54.7618 40.5469 54.6212 40.5469C54.3634 40.5469 54.1876 40.4648 54.0939 40.3008C53.3439 40.4883 52.5939 40.6875 51.8439 40.8984C51.0939 41.0859 50.3439 41.2734 49.5939 41.4609C49.2189 41.5312 48.8439 41.6016 48.4689 41.6719C48.1173 41.7422 47.754 41.8359 47.379 41.9531C47.1915 42 47.004 42.082 46.8165 42.1992L46.254 42.5508C46.1368 42.5273 46.0314 42.5156 45.9376 42.5156C45.8439 42.4922 45.7501 42.4805 45.6564 42.4805C45.2579 42.4805 44.8361 42.5625 44.3907 42.7266C43.9454 42.8672 43.5587 43.0664 43.2306 43.3242H42.9845C42.7501 43.3242 42.5861 43.2891 42.4923 43.2188C42.2814 43.1953 42.1525 43.2656 42.1056 43.4297C42.0587 43.5703 41.9767 43.6992 41.8595 43.8164C41.0626 43.8867 40.2775 44.0273 39.504 44.2383C38.7306 44.4492 37.9689 44.6836 37.2189 44.9414C36.4689 45.1758 35.7072 45.4219 34.9337 45.6797C34.1837 45.9141 33.422 46.1016 32.6486 46.2422C32.5548 46.7109 32.5079 47.25 32.5079 47.8594C32.5079 48.3281 32.5431 48.8672 32.6134 49.4766C32.7072 50.0859 32.8947 50.6016 33.1759 51.0234V51.0938C33.1759 51.2109 33.129 51.293 33.0353 51.3398C32.9415 51.3867 32.8947 51.4688 32.8947 51.5859C32.8947 52.1953 32.9532 52.7695 33.0704 53.3086C33.2111 53.8477 33.3517 54.375 33.4923 54.8906C33.6329 55.4062 33.7618 55.9219 33.879 56.4375C34.0197 56.9531 34.09 57.4805 34.09 58.0195C34.09 58.1602 34.0782 58.2891 34.0548 58.4062C34.0548 58.5469 34.0431 58.6875 34.0197 58.8281C34.09 59.0391 34.2072 59.2148 34.3712 59.3555C34.5353 59.4961 34.6759 59.6602 34.7931 59.8477C34.8165 59.9648 34.8282 60.0703 34.8282 60.1641V60.5156C34.8282 60.9141 34.7814 61.2656 34.6876 61.5703C34.5939 61.875 34.4767 62.1562 34.3361 62.4141C34.1954 62.6953 34.0431 62.9648 33.879 63.2227C33.715 63.5039 33.5626 63.8086 33.422 64.1367C33.1876 64.1836 33.0001 64.207 32.8595 64.207C32.5079 64.207 32.215 64.1133 31.9806 63.9258C31.7697 63.7383 31.5822 63.5039 31.4181 63.2227C31.254 62.9648 31.09 62.6953 30.9259 62.4141C30.7853 62.1328 30.6095 61.8984 30.3986 61.7109C30.422 61.5938 30.4337 61.4883 30.4337 61.3945C30.4572 61.3008 30.4689 61.1953 30.4689 61.0781C30.4689 60.6094 30.3868 60.1523 30.2228 59.707C30.0822 59.2617 29.9181 58.8398 29.7306 58.4414C29.7072 57.6445 29.6251 56.8594 29.4845 56.0859C29.3439 55.3125 29.1447 54.5508 28.8868 53.8008C28.9337 53.5195 28.9689 53.25 28.9923 52.9922C29.0157 52.7109 29.0275 52.4414 29.0275 52.1836C29.0275 51.5039 28.9923 50.8242 28.922 50.1445C28.8517 49.4648 28.84 48.7852 28.8868 48.1055C28.8165 47.9883 28.7462 47.8945 28.6759 47.8242C28.6056 47.7305 28.547 47.625 28.5001 47.5078H28.3595C28.0079 47.5078 27.6681 47.543 27.34 47.6133C27.0118 47.6602 26.6837 47.6836 26.3556 47.6836C26.2384 47.6836 26.1329 47.6836 26.0392 47.6836C25.9454 47.6602 25.84 47.6367 25.7228 47.6133C25.465 47.3555 25.2657 47.0625 25.1251 46.7344C24.9845 46.4062 24.9142 46.0664 24.9142 45.7148C24.9142 45.1992 25.0548 44.7305 25.3361 44.3086C25.922 44.168 26.4962 44.0039 27.0587 43.8164C27.6447 43.6055 28.2072 43.3594 28.7462 43.0781C28.8165 42.7266 28.8517 42.375 28.8517 42.0234C28.8751 41.6719 29.004 41.3438 29.2384 41.0391C29.1681 40.8516 29.0509 40.6875 28.8868 40.5469C28.7462 40.3828 28.6759 40.1953 28.6759 39.9844C28.6759 39.8672 28.6993 39.7148 28.7462 39.5273C28.9806 39.2695 29.1447 38.9414 29.2384 38.543C29.3322 38.1445 29.4142 37.7227 29.4845 37.2773C29.5548 36.832 29.6251 36.3867 29.6954 35.9414C29.7892 35.4961 29.9415 35.0977 30.1525 34.7461C30.1056 34.5586 30.0704 34.3594 30.047 34.1484C30.0236 33.9141 30.0118 33.7031 30.0118 33.5156C30.0118 33.2344 30.0236 32.9531 30.047 32.6719C30.0939 32.3672 30.1642 32.0859 30.2579 31.8281C30.0001 31.5234 29.7892 31.1719 29.6251 30.7734C29.4611 30.3516 29.379 29.9414 29.379 29.543C29.379 28.7695 29.754 28.2773 30.504 28.0664C30.4806 27.9727 30.4572 27.8906 30.4337 27.8203C30.4337 27.75 30.4337 27.6797 30.4337 27.6094C30.4337 27.3984 30.4923 27.1992 30.6095 27.0117C30.7267 26.8242 30.8204 26.6367 30.8907 26.4492C30.7736 26.1445 30.715 25.8867 30.715 25.6758C30.715 25.4883 30.7501 25.3242 30.8204 25.1836C30.8907 25.0195 30.9493 24.8438 30.9962 24.6562C31.0665 24.4219 31.1134 24.2109 31.1368 24.0234C31.1837 23.8359 31.254 23.6719 31.3478 23.5312C31.4415 23.3906 31.5587 23.2852 31.6993 23.2148C31.8634 23.1445 32.1095 23.1094 32.4376 23.1094C32.9532 23.1094 33.4454 23.2734 33.9142 23.6016C34.4064 23.9062 34.7814 24.2578 35.0392 24.6562C35.297 24.6328 35.5197 24.5859 35.7072 24.5156C35.9181 24.4219 36.1056 24.3398 36.2697 24.2695C36.4572 24.1992 36.6447 24.1406 36.8322 24.0938C37.0431 24.0234 37.2892 24 37.5704 24.0234C37.6407 23.8594 37.7579 23.7539 37.922 23.707C38.1095 23.6367 38.297 23.5898 38.4845 23.5664C38.672 23.5195 38.8478 23.4609 39.0118 23.3906C39.1759 23.3203 39.2814 23.1914 39.3282 23.0039C39.422 23.0742 39.5275 23.1094 39.6447 23.1094C39.7618 23.1094 39.879 23.0977 39.9962 23.0742C40.1134 23.0273 40.2423 23.0039 40.3829 23.0039C40.5236 23.0039 40.6407 23.0508 40.7345 23.1445C41.3439 22.8164 41.9884 22.582 42.6681 22.4414C43.3712 22.2773 44.0626 22.1836 44.7423 22.1602C46.3595 21.2695 48.0587 20.6602 49.84 20.332C51.6447 20.0039 53.4493 19.8398 55.254 19.8398C55.5118 19.8398 55.7579 19.8398 55.9923 19.8398C56.2501 19.8164 56.4962 19.8281 56.7306 19.875C56.9884 19.9219 57.2697 20.0039 57.5743 20.1211C57.9025 20.2383 58.2189 20.3789 58.5236 20.543C58.8517 20.707 59.1564 20.8945 59.4376 21.1055C59.7189 21.293 59.9532 21.4688 60.1407 21.6328C60.3282 22.0547 60.422 22.4648 60.422 22.8633C60.422 23.0508 60.4103 23.2383 60.3868 23.4258C60.3634 23.5898 60.3517 23.7656 60.3517 23.9531C60.3517 24.2344 60.4103 24.5508 60.5275 24.9023C60.4572 24.8789 60.34 24.8672 60.1759 24.8672C59.965 24.8672 59.7892 24.9141 59.6486 25.0078C59.5079 25.1016 59.379 25.207 59.2618 25.3242C59.1447 25.4414 59.0275 25.5469 58.9103 25.6406C58.8165 25.7344 58.7228 25.7812 58.629 25.7812C58.4415 25.7812 58.2775 25.7461 58.1368 25.6758C58.0197 25.6055 57.8907 25.5352 57.7501 25.4648C57.6329 25.3711 57.504 25.3008 57.3634 25.2539C57.2228 25.1836 57.0587 25.1602 56.8712 25.1836V25.043C56.8712 24.7852 56.7892 24.6211 56.6251 24.5508C56.4611 24.457 56.3322 24.3281 56.2384 24.1641C55.8868 24.1406 55.5353 24.0938 55.1837 24.0234C54.8556 23.9531 54.5157 23.918 54.1642 23.918C53.6954 23.918 53.3322 24.082 53.0743 24.4102C52.9572 24.3633 52.8517 24.3047 52.7579 24.2344C52.6876 24.1641 52.5822 24.1406 52.4415 24.1641H52.3361C51.0704 24.1641 49.8282 24.3047 48.6095 24.5859C47.3907 24.8438 46.1837 25.1719 44.9884 25.5703C43.7931 25.9453 42.5978 26.3555 41.4025 26.8008C40.2072 27.2461 39.0118 27.6328 37.8165 27.9609C37.5353 28.3359 37.2423 28.6172 36.9376 28.8047C36.6329 28.9688 36.3282 29.1094 36.0236 29.2266C35.7423 29.3438 35.4611 29.4609 35.1798 29.5781C34.8986 29.6953 34.6525 29.8828 34.4415 30.1406C34.254 30.3984 34.1017 30.7617 33.9845 31.2305C33.8907 31.6758 33.8673 32.2969 33.9142 33.0938C33.797 33.2344 33.7267 33.3867 33.7032 33.5508C33.6798 33.7148 33.6564 33.8789 33.6329 34.043C33.6095 34.1836 33.5743 34.3242 33.5275 34.4648C33.4806 34.6055 33.3986 34.7344 33.2814 34.8516C33.3282 35.0859 33.3634 35.3203 33.3868 35.5547C33.4103 35.7891 33.422 36.0234 33.422 36.2578C33.422 37.2422 33.2579 38.2031 32.9298 39.1406C33.047 39.3281 33.1056 39.5391 33.1056 39.7734C33.1056 40.0312 33.0704 40.2656 33.0001 40.4766C32.9298 40.6875 32.8947 40.9219 32.8947 41.1797C32.8947 41.4375 32.9415 41.6484 33.0353 41.8125C33.1759 41.8125 33.2579 41.8594 33.2814 41.9531H33.4923C33.9142 41.9531 34.2775 41.8477 34.5822 41.6367C34.8868 41.4258 35.215 41.3203 35.5665 41.3203C35.6368 41.3203 35.7189 41.3438 35.8126 41.3906C35.9064 41.4375 35.9884 41.4609 36.0587 41.4609C36.2228 41.4609 36.2931 41.4023 36.2697 41.2852C36.2462 41.168 36.3048 41.0859 36.4454 41.0391L37.7111 40.8281C38.5079 40.6875 39.2579 40.5234 39.9611 40.3359C40.6876 40.125 41.4025 39.8203 42.1056 39.4219C42.2697 39.4922 42.4572 39.5273 42.6681 39.5273C42.8556 39.5273 43.0548 39.5039 43.2657 39.457C43.4767 39.3867 43.6759 39.3516 43.8634 39.3516C44.0275 39.3516 44.1564 39.375 44.2501 39.4219C44.3907 39.3281 44.5665 39.2578 44.7775 39.2109C44.9884 39.1406 45.1056 39 45.129 38.7891H45.1993C45.2931 38.7891 45.3634 38.8125 45.4103 38.8594C45.4572 38.9062 45.5275 38.9297 45.6212 38.9297H45.7618C46.254 38.6953 46.6993 38.5195 47.0978 38.4023C47.754 38.2383 48.4572 38.0977 49.2072 37.9805C49.9572 37.8398 50.6251 37.6055 51.2111 37.2773C51.8907 37.2773 52.547 37.1719 53.1798 36.9609C53.8361 36.7266 54.4923 36.6094 55.1486 36.6094C55.4532 36.6094 55.7345 36.6562 55.9923 36.75C56.2267 36.5859 56.4962 36.4688 56.8009 36.3984C57.129 36.3281 57.3986 36.1992 57.6095 36.0117C57.7501 36.0352 57.8907 36.0586 58.0314 36.082C58.1954 36.082 58.3595 36.082 58.5236 36.082C59.2267 36.082 59.8947 35.9883 60.5275 35.8008C61.1837 35.5898 61.8517 35.4375 62.5314 35.3438C62.6954 35.5312 62.8009 35.7305 62.8478 35.9414C62.9181 36.1289 62.9532 36.3281 62.9532 36.5391ZM83.0626 54.6094C82.9923 54.9375 82.84 55.207 82.6056 55.418C82.3947 55.6055 82.1368 55.7578 81.8322 55.875C81.5275 55.9922 81.2111 56.0742 80.8829 56.1211C80.5782 56.1445 80.297 56.1562 80.0392 56.1562C79.922 56.1562 79.8048 56.1562 79.6876 56.1562C79.5939 56.1328 79.4884 56.1211 79.3712 56.1211C79.254 56.1211 79.1954 56.1797 79.1954 56.2969C79.1954 56.4141 79.1368 56.4961 79.0197 56.543C78.9025 56.4961 78.7853 56.4609 78.6681 56.4375C78.5509 56.4141 78.4337 56.4023 78.3165 56.4023C78.1525 56.4023 77.9884 56.4141 77.8243 56.4375C77.6837 56.4609 77.5431 56.4727 77.4025 56.4727C77.215 56.4727 77.0743 56.4492 76.9806 56.4023C76.9103 56.3555 76.84 56.3086 76.7697 56.2617C76.7228 56.1914 76.6642 56.1211 76.5939 56.0508C76.547 55.9805 76.465 55.9219 76.3478 55.875C76.1837 55.8047 76.0431 55.793 75.9259 55.8398C75.8322 55.8867 75.6798 55.8164 75.4689 55.6289C75.1876 55.3945 74.9415 55.1133 74.7306 54.7852C74.5431 54.4336 74.3556 54.0703 74.1681 53.6953C73.9806 53.3203 73.7814 52.9453 73.5704 52.5703C73.3595 52.1953 73.1134 51.8672 72.8322 51.5859H72.5509C72.129 51.5859 71.8361 51.7617 71.672 52.1133C71.5548 52.043 71.4376 51.9609 71.3204 51.8672C71.2032 51.75 71.0743 51.6562 70.9337 51.5859C70.3947 51.75 69.8322 51.8906 69.2462 52.0078C68.6603 52.125 68.0743 52.1836 67.4884 52.1836H66.9962C66.8556 52.1836 66.7032 52.1602 66.5392 52.1133C66.3048 52.207 66.0939 52.3242 65.9064 52.4648C65.7189 52.582 65.5079 52.6406 65.2736 52.6406C65.1329 52.6406 64.9689 52.5938 64.7814 52.5C64.6407 52.5 64.5704 52.5586 64.5704 52.6758C64.5939 52.793 64.5236 52.8516 64.3595 52.8516H64.0431C63.715 52.8516 63.3868 52.8633 63.0587 52.8867C62.754 52.9102 62.4376 52.9219 62.1095 52.9219C61.6642 52.9219 61.2072 52.8633 60.7384 52.7461C60.6212 52.8164 60.4923 52.8516 60.3517 52.8516C60.2579 52.8984 60.1876 52.9805 60.1407 53.0977C60.0939 53.1914 60.047 53.2852 60.0001 53.3789C59.9532 53.4492 59.8829 53.5195 59.7892 53.5898C59.7189 53.6367 59.6134 53.6484 59.4728 53.625C59.4259 53.9062 59.3087 54.1289 59.1212 54.293C58.9337 54.457 58.84 54.7031 58.84 55.0312C58.5822 55.1719 58.3712 55.3477 58.2072 55.5586C58.0431 55.7695 57.879 55.9922 57.715 56.2266C57.5509 56.4609 57.3751 56.6836 57.1876 56.8945C57.0236 57.1055 56.8126 57.2695 56.5548 57.3867C56.4376 57.5273 56.4025 57.75 56.4493 58.0547C56.1915 58.2656 55.8751 58.4531 55.5001 58.6172C55.1251 58.7812 54.7736 58.8633 54.4454 58.8633C53.7657 58.8633 53.297 58.5 53.0392 57.7734C53.0392 57.5391 53.0626 57.293 53.1095 57.0352C53.1329 56.7539 53.1798 56.4961 53.2501 56.2617C53.3204 56.0039 53.4259 55.7812 53.5665 55.5938C53.7072 55.3828 53.9064 55.2305 54.1642 55.1367C54.1642 54.9258 54.0939 54.7852 53.9532 54.7148C53.8126 54.6211 53.754 54.4688 53.7775 54.2578C54.4103 53.9531 54.9611 53.5547 55.4298 53.0625C55.8986 52.5703 56.3204 52.0547 56.6954 51.5156C57.0939 50.9531 57.4923 50.3906 57.8907 49.8281C58.2892 49.2656 58.7345 48.7617 59.2267 48.3164V47.5781C59.9298 46.8281 60.3868 45.9844 60.5978 45.0469C60.8556 45 61.0197 44.8828 61.09 44.6953C61.1837 44.5078 61.2306 44.2852 61.2306 44.0273C61.3478 44.0273 61.4181 43.9805 61.4415 43.8867C61.4884 43.7695 61.5939 43.7344 61.7579 43.7812C61.9689 43.2188 62.2032 42.7031 62.4611 42.2344C62.7189 41.7656 62.9767 41.2969 63.2345 40.8281C63.4923 40.3359 63.715 39.832 63.9025 39.3164C64.1134 38.8008 64.2657 38.2266 64.3595 37.5938C64.6876 37.5703 64.8634 37.418 64.8868 37.1367C64.9337 36.832 64.9806 36.5625 65.0275 36.3281C65.379 36 65.6368 35.6133 65.8009 35.168C65.9884 34.7227 66.1525 34.2656 66.2931 33.7969C66.4337 33.3047 66.5861 32.8242 66.7501 32.3555C66.9376 31.8633 67.1954 31.4297 67.5236 31.0547V30.9492C67.5236 30.832 67.4767 30.7617 67.3829 30.7383C67.2892 30.6914 67.2423 30.6094 67.2423 30.4922C67.2657 30.4688 67.2775 30.4453 67.2775 30.4219C67.5587 30.3047 67.7697 30.1172 67.9103 29.8594C68.0509 29.5781 68.2618 29.3789 68.5431 29.2617C69.0353 29.6602 69.4689 29.9062 69.8439 30C70.2189 30.0703 70.7111 30.1289 71.3204 30.1758C71.6251 30.5039 71.7892 30.9023 71.8126 31.3711C71.8595 31.8164 71.9415 32.2617 72.0587 32.707C72.2462 33.457 72.4454 34.1953 72.6564 34.9219C72.8907 35.625 73.0665 36.3516 73.1837 37.1016C73.254 37.5469 73.3829 37.9688 73.5704 38.3672C73.7579 38.7656 73.8868 39.1758 73.9572 39.5977C74.004 39.9258 74.004 40.3008 73.9572 40.7227C73.9103 41.1211 73.9572 41.4727 74.0978 41.7773L74.3439 42.3398C74.4611 42.5977 74.5548 42.8672 74.6251 43.1484C74.7189 43.4297 74.8009 43.7109 74.8712 43.9922C75.0587 44.6953 75.2228 45.457 75.3634 46.2773C75.5275 47.0742 75.7736 47.8008 76.1017 48.457C76.2189 48.6914 76.3947 48.8555 76.629 48.9492C76.8868 49.043 77.1681 49.1133 77.4728 49.1602C77.7775 49.1836 78.0704 49.1953 78.3517 49.1953C78.6564 49.1719 78.9142 49.1602 79.1251 49.1602H79.4767C79.6173 49.1602 79.7579 49.1836 79.8986 49.2305C79.9923 49.418 80.0392 49.582 80.0392 49.7227C80.0392 50.0039 79.9454 50.2266 79.7579 50.3906C79.5704 50.5547 79.4767 50.7422 79.4767 50.9531C79.4767 51.0703 79.5236 51.1992 79.6173 51.3398C79.5236 51.3164 79.3829 51.3047 79.1954 51.3047C78.6564 51.3047 78.129 51.3984 77.6134 51.5859C77.8009 51.9844 78.047 52.3242 78.3517 52.6055C78.6798 52.8633 79.0197 53.1094 79.3712 53.3438C79.6056 53.1562 79.8517 53.0625 80.1095 53.0625C80.3907 53.0625 80.6486 53.1328 80.8829 53.2734C81.1407 53.3906 81.4103 53.4492 81.6915 53.4492C81.9025 53.4492 82.0548 53.4141 82.1486 53.3438C82.3361 53.5547 82.4884 53.7773 82.6056 54.0117C82.7228 54.2227 82.8751 54.4219 83.0626 54.6094ZM72.0587 48.9844C72.0118 48.5859 71.9298 48.3047 71.8126 48.1406C71.7189 47.9531 71.6368 47.7305 71.5665 47.4727C71.4728 47.1445 71.4025 46.793 71.3556 46.418C71.3322 46.043 71.2853 45.6797 71.215 45.3281C71.0509 44.5312 70.8634 43.7344 70.6525 42.9375C70.465 42.1406 70.2189 41.3672 69.9142 40.6172C70.0079 40.4766 70.0548 40.3477 70.0548 40.2305V40.125C69.8439 39.8906 69.6915 39.6094 69.5978 39.2812C69.504 38.9297 69.4103 38.5898 69.3165 38.2617C69.2462 37.9102 69.1407 37.5938 69.0001 37.3125C68.8829 37.0078 68.6837 36.7617 68.4025 36.5742C68.3322 36.7148 68.297 36.8789 68.297 37.0664C68.297 37.2305 68.3087 37.3828 68.3322 37.5234C68.379 37.6641 68.4025 37.8164 68.4025 37.9805C68.1681 38.0977 67.9923 38.2852 67.8751 38.543C67.7814 38.7773 67.6173 38.9648 67.3829 39.1055C67.1954 39.8555 66.9259 40.5703 66.5743 41.25C66.2228 41.9062 65.8478 42.5625 65.4493 43.2188C65.0743 43.875 64.7111 44.543 64.3595 45.2227C64.0079 45.8789 63.7267 46.5703 63.5157 47.2969C63.2111 47.5078 63.0001 47.7773 62.8829 48.1055C62.7892 48.4336 62.7423 48.7617 62.7423 49.0898C62.9532 49.207 63.1876 49.2773 63.4454 49.3008C63.7267 49.3008 63.9962 49.3008 64.254 49.3008C64.5118 49.3008 64.7579 49.3242 64.9923 49.3711C65.2267 49.418 65.4376 49.5352 65.6251 49.7227C65.9298 49.6289 66.2579 49.5703 66.6095 49.5469C66.9845 49.5 67.2892 49.3945 67.5236 49.2305C67.9923 49.3945 68.4962 49.4766 69.0353 49.4766C69.3165 49.4766 69.5861 49.4531 69.8439 49.4062C70.1251 49.3594 70.3947 49.3008 70.6525 49.2305C70.8634 49.2773 71.0275 49.3594 71.1447 49.4766C71.2618 49.5703 71.4376 49.6055 71.672 49.582C71.7892 49.4883 71.8595 49.3945 71.8829 49.3008C71.9064 49.1836 71.965 49.0781 72.0587 48.9844ZM101.379 52.7461C101.379 53.1445 101.274 53.4961 101.063 53.8008C100.875 54.082 100.805 54.4336 100.852 54.8555C100.524 55.043 100.254 55.2891 100.043 55.5938C99.8322 55.8984 99.6329 56.2148 99.4454 56.543C97.8986 57.5508 96.2345 58.3594 94.4532 58.9688C92.6954 59.6016 90.879 59.918 89.004 59.918C88.8868 59.918 88.7814 59.8594 88.6876 59.7422C88.5939 59.6484 88.5001 59.543 88.4064 59.4258C88.3126 59.3086 88.2072 59.1914 88.09 59.0742C87.9962 58.9805 87.879 58.9336 87.7384 58.9336C87.5743 58.9336 87.4454 58.9688 87.3517 59.0391C87.3517 58.9922 87.3517 58.9453 87.3517 58.8984C87.3751 58.875 87.3868 58.8398 87.3868 58.793C87.3868 58.5117 87.3517 58.2188 87.2814 57.9141C87.2111 57.6328 87.1759 57.3516 87.1759 57.0703C87.1759 56.7422 87.2345 56.4727 87.3517 56.2617H87.7736C88.0079 56.2617 88.2306 56.25 88.4415 56.2266C88.6759 56.1797 88.922 56.1562 89.1798 56.1562C89.4376 56.1562 89.672 56.2266 89.8829 56.3672C91.172 56.3203 92.3907 56.0859 93.5392 55.6641C94.7111 55.2188 95.8947 54.7852 97.09 54.3633C97.2775 54.1055 97.3829 53.8242 97.4064 53.5195C97.4532 53.1914 97.547 52.8867 97.6876 52.6055C97.0782 52.0898 96.4572 51.6914 95.8243 51.4102C95.215 51.1055 94.5001 51 93.6798 51.0938C93.1876 50.7891 92.6603 50.6133 92.0978 50.5664C91.5587 50.5195 91.0079 50.4492 90.4454 50.3555C90.3048 50.332 90.1525 50.3086 89.9884 50.2852C89.8478 50.2383 89.6954 50.2148 89.5314 50.2148C89.4142 50.2148 89.297 50.25 89.1798 50.3203C89.0861 50.3672 89.0626 50.4492 89.1095 50.5664C88.9923 50.3789 88.8282 50.2734 88.6173 50.25C88.4298 50.2031 88.2657 50.1094 88.1251 49.9688C87.3751 49.9219 86.7189 49.793 86.1564 49.582C85.5939 49.3477 84.9728 49.0898 84.2931 48.8086C84.1056 48.7383 83.9181 48.6914 83.7306 48.668C83.5665 48.6211 83.4025 48.5508 83.2384 48.457C82.8165 48.2461 82.4767 47.9648 82.2189 47.6133C81.9611 47.2617 81.7618 46.875 81.6212 46.4531C81.4572 46.0078 81.34 45.5508 81.2697 45.082C81.1993 44.6133 81.129 44.1797 81.0587 43.7812C81.2697 43.4062 81.4689 43.0195 81.6564 42.6211C81.8204 42.2227 81.9611 41.8008 82.0782 41.3555C82.2189 41.2852 82.3595 41.2266 82.5001 41.1797C82.6407 41.1328 82.7931 41.0742 82.9572 41.0039C82.9337 40.957 82.922 40.8984 82.922 40.8281C82.922 40.7109 82.9572 40.5938 83.0275 40.4766C83.1212 40.3594 83.1447 40.2422 83.0978 40.125C83.6134 39.6562 84.1056 39.1758 84.5743 38.6836C85.0665 38.168 85.4884 37.6055 85.84 36.9961C86.1915 36.8789 86.4728 36.7031 86.6837 36.4688C86.8947 36.2344 87.1056 36 87.3165 35.7656C87.5275 35.5078 87.7618 35.2852 88.0197 35.0977C88.2775 34.8867 88.6056 34.7578 89.004 34.7109C89.0978 34.5469 89.2267 34.418 89.3907 34.3242C89.5548 34.207 89.7189 34.1016 89.8829 34.0078C90.047 33.9141 90.1993 33.8086 90.34 33.6914C90.4806 33.5742 90.5861 33.4102 90.6564 33.1992C91.0314 33.1992 91.3712 33.1289 91.6759 32.9883C92.004 32.8477 92.3204 32.6953 92.6251 32.5312C92.9298 32.3672 93.2345 32.2148 93.5392 32.0742C93.8673 31.9336 94.2189 31.8633 94.5939 31.8633C94.6876 31.8633 94.7814 31.875 94.8751 31.8984C94.9689 31.8984 95.0743 31.9102 95.1915 31.9336C95.3556 32.0977 95.4611 32.2969 95.5079 32.5312C95.5782 32.7422 95.6251 32.9766 95.6486 33.2344C95.672 33.4922 95.6837 33.75 95.6837 34.0078C95.7072 34.2656 95.754 34.5 95.8243 34.7109C95.6134 35.1094 95.379 35.5078 95.1212 35.9062C94.8868 36.3047 94.5704 36.6094 94.172 36.8203H94.1017C93.9376 36.8438 93.7853 36.8086 93.6447 36.7148C93.504 36.6211 93.34 36.5742 93.1525 36.5742C93.0353 36.5742 92.9415 36.6094 92.8712 36.6797L92.6954 36.8555C92.6486 36.9023 92.5782 36.9492 92.4845 36.9961C92.4142 37.043 92.3087 37.043 92.1681 36.9961C91.84 37.1133 91.7111 37.3125 91.7814 37.5938C91.3361 37.6406 90.9611 37.7812 90.6564 38.0156C90.3517 38.2266 90.0704 38.4727 89.8126 38.7539C89.5548 39.0117 89.297 39.2578 89.0392 39.4922C88.7814 39.7031 88.4767 39.8203 88.1251 39.8438C87.7267 40.5469 87.2345 41.168 86.6486 41.707C86.0861 42.2461 85.6173 42.8555 85.2423 43.5352C85.3126 43.7227 85.3595 43.9219 85.3829 44.1328C85.4064 44.3438 85.4415 44.5664 85.4884 44.8008C85.6993 45.082 85.9454 45.3281 86.2267 45.5391C86.5314 45.75 86.8243 45.9609 87.1056 46.1719H87.2111C87.6798 46.1719 88.1134 46.2656 88.5118 46.4531C88.9103 46.6172 89.3322 46.6992 89.7775 46.6992C90.0118 46.6992 90.2111 46.6523 90.3751 46.5586C90.9845 46.6992 91.5822 46.8164 92.1681 46.9102C92.7775 47.0039 93.3868 47.0742 93.9962 47.1211C94.3009 47.168 94.6056 47.1914 94.9103 47.1914C95.2384 47.1914 95.5431 47.2266 95.8243 47.2969C96.0822 47.3672 96.34 47.4609 96.5978 47.5781C96.8556 47.6719 97.1134 47.7773 97.3712 47.8945C97.9103 48.1289 98.4142 48.3867 98.8829 48.668C99.3751 48.9492 99.8087 49.2891 100.184 49.6875C100.559 50.0625 100.852 50.5078 101.063 51.0234C101.274 51.5156 101.379 52.0898 101.379 52.7461ZM125.391 40.7578C125.297 40.9922 125.203 41.2148 125.109 41.4258C125.016 41.6367 124.945 41.8711 124.899 42.1289C124.734 42.2461 124.547 42.3398 124.336 42.4102C124.149 42.457 123.949 42.5156 123.738 42.5859C123.527 42.6328 123.328 42.7031 123.141 42.7969C122.977 42.8672 122.848 42.9844 122.754 43.1484C122.684 43.5 122.649 43.8281 122.649 44.1328C122.649 44.5312 122.719 44.8711 122.859 45.1523C122.789 45.3633 122.742 45.5859 122.719 45.8203C122.695 46.0547 122.684 46.2773 122.684 46.4883C122.684 47.2617 122.777 48.0352 122.965 48.8086C123.152 49.5586 123.258 50.3203 123.281 51.0938C123.281 51.2109 123.27 51.3398 123.246 51.4805C123.223 51.6211 123.211 51.75 123.211 51.8672C123.211 52.3594 123.399 52.6875 123.774 52.8516C123.703 52.9688 123.668 53.0742 123.668 53.168C123.668 53.3555 123.692 53.5195 123.738 53.6602C123.785 53.8008 123.797 53.9531 123.774 54.1172C123.891 54.3516 124.008 54.5625 124.125 54.75C124.242 54.9141 124.324 55.125 124.371 55.3828C124.207 55.7109 124.008 56.0156 123.774 56.2969C123.539 56.5547 123.375 56.8828 123.281 57.2812C123.188 57.2578 123.082 57.2461 122.965 57.2461C122.801 57.2461 122.672 57.2812 122.578 57.3516C122.484 57.4219 122.402 57.5039 122.332 57.5977C122.285 57.7148 122.227 57.8203 122.156 57.9141C122.086 58.0312 121.992 58.1133 121.875 58.1602H121.77C121.652 58.1836 121.547 58.1719 121.453 58.125C121.383 58.1016 121.313 58.0898 121.242 58.0898C121.195 58.0898 121.102 58.1133 120.961 58.1602C120.774 57.9258 120.645 57.6445 120.574 57.3164C120.504 57.0117 120.469 56.707 120.469 56.4023C120.469 56.0742 120.516 55.7812 120.609 55.5234C120.352 55.3125 120.188 54.9961 120.117 54.5742C120.07 54.1523 120.012 53.8008 119.942 53.5195C119.754 52.6523 119.531 51.8086 119.274 50.9883C119.039 50.168 118.899 49.3242 118.852 48.457C118.828 48.1289 118.817 47.8125 118.817 47.5078V45.6797C118.817 45.375 118.828 45.082 118.852 44.8008C118.852 44.5898 118.863 44.3906 118.887 44.2031C118.934 43.9922 118.957 43.7812 118.957 43.5703C118.957 43.2891 118.863 43.0195 118.676 42.7617C117.012 42.832 115.43 43.1367 113.93 43.6758C112.453 44.1914 110.977 44.8125 109.5 45.5391C109.406 46.0781 109.348 46.6055 109.324 47.1211C109.301 47.6367 109.289 48.1641 109.289 48.7031V50.25C109.289 50.8359 109.313 51.3281 109.359 51.7266C109.477 52.4062 109.817 52.9336 110.379 53.3086C110.965 53.6602 111.551 53.9297 112.137 54.1172C112.113 54.4688 112.043 54.7734 111.926 55.0312C111.809 55.2656 111.656 55.4883 111.469 55.6992C111.305 55.8867 111.117 56.0742 110.906 56.2617C110.695 56.4492 110.484 56.6602 110.274 56.8945C110.086 56.7773 109.899 56.6953 109.711 56.6484C109.524 56.6016 109.324 56.5781 109.113 56.5781C108.902 56.5547 108.692 56.5312 108.481 56.5078C108.27 56.4844 108.059 56.4375 107.848 56.3672L107.074 55.3125C106.817 54.9609 106.535 54.6094 106.231 54.2578V53.9414C106.231 53.3086 106.113 52.6992 105.879 52.1133C105.645 51.5273 105.469 50.9297 105.352 50.3203C105.422 50.1094 105.469 49.8984 105.492 49.6875C105.516 49.4766 105.527 49.2539 105.527 49.0195C105.527 48.5508 105.504 48.0938 105.457 47.6484C105.434 47.2031 105.445 46.7578 105.492 46.3125H105.317C105.106 46.3125 104.883 46.3711 104.649 46.4883C104.414 46.582 104.18 46.6992 103.945 46.8398C103.734 46.957 103.524 47.0742 103.313 47.1914C103.125 47.2852 102.961 47.332 102.82 47.332C102.75 47.332 102.68 47.3203 102.609 47.2969C102.539 47.2734 102.457 47.2617 102.363 47.2617C102.246 47.2617 102.106 47.3086 101.942 47.4023C101.777 47.4961 101.602 47.6016 101.414 47.7188C101.203 47.8125 100.992 47.9062 100.781 48C100.57 48.0938 100.359 48.1406 100.149 48.1406C99.8204 48.1406 99.4923 48 99.1642 47.7188C99.1173 47.5312 99.1056 47.3555 99.129 47.1914C99.129 47.0273 99.129 46.8516 99.129 46.6641C99.129 46.4766 99.0939 46.2773 99.0236 46.0664C99.1876 45.7617 99.4103 45.5273 99.6915 45.3633C99.9493 45.1758 100.231 45.0117 100.535 44.8711C100.817 44.707 101.109 44.5547 101.414 44.4141C101.719 44.25 101.977 44.0391 102.188 43.7812H102.399C102.727 43.7812 103.02 43.7109 103.277 43.5703C103.559 43.4297 103.875 43.3711 104.227 43.3945C104.344 43.3477 104.426 43.1719 104.473 42.8672L104.613 42.9023C105.129 42.9023 105.586 42.7266 105.984 42.375C106.242 40.9219 106.453 39.457 106.617 37.9805C106.781 36.5039 106.863 35.0273 106.863 33.5508C106.863 33.4102 106.817 33.2695 106.723 33.1289C106.676 32.9414 106.652 32.7656 106.652 32.6016V32.0742C106.652 31.8164 106.664 31.5469 106.688 31.2656C106.711 30.9844 106.77 30.7031 106.863 30.4219C107.098 30.2812 107.344 30.2109 107.602 30.2109C107.906 30.2109 108.199 30.2578 108.481 30.3516C108.785 30.4219 109.078 30.4805 109.359 30.5273C109.57 30.7383 109.723 30.9727 109.817 31.2305C109.934 31.4883 110.004 31.7578 110.027 32.0391C110.051 32.2969 110.051 32.5664 110.027 32.8477C110.027 33.1055 110.027 33.3633 110.027 33.6211C110.027 34.1367 110.086 34.6406 110.203 35.1328C110.32 35.625 110.379 36.1055 110.379 36.5742C110.379 36.6914 110.332 36.7852 110.238 36.8555C110.168 36.9023 110.133 37.0547 110.133 37.3125C110.133 37.5703 110.156 37.8398 110.203 38.1211C110.25 38.4023 110.274 38.6836 110.274 38.9648C110.274 39.293 110.227 39.6328 110.133 39.9844C110.039 40.3359 109.957 40.6758 109.887 41.0039C111.293 40.8867 112.734 40.7109 114.211 40.4766C115.688 40.2422 117.094 39.8672 118.43 39.3516C118.453 39.3047 118.465 39.2344 118.465 39.1406C118.465 39 118.453 38.8594 118.43 38.7188C118.406 38.5781 118.395 38.4258 118.395 38.2617C118.395 37.9805 118.488 37.7578 118.676 37.5938C118.559 36.9375 118.477 36.2812 118.43 35.625C118.383 34.9688 118.359 34.3125 118.359 33.6562V31.6523C118.359 30.9961 118.348 30.3398 118.324 29.6836C118.512 29.5664 118.711 29.5078 118.922 29.5078C119.18 29.5078 119.414 29.5781 119.625 29.7188C119.859 29.8359 120.129 29.8945 120.434 29.8945C120.645 29.8945 120.82 29.8594 120.961 29.7891C121.219 30.0234 121.395 30.3281 121.488 30.7031C121.582 31.0781 121.664 31.4648 121.734 31.8633C121.805 32.2617 121.875 32.6602 121.945 33.0586C122.039 33.4336 122.215 33.7383 122.473 33.9727L122.508 34.0781C122.508 34.1719 122.461 34.2422 122.367 34.2891C122.274 34.3359 122.227 34.4297 122.227 34.5703V34.7109C122.32 35.0859 122.391 35.4727 122.438 35.8711C122.484 36.2695 122.52 36.6797 122.543 37.1016C122.59 37.5 122.649 37.8984 122.719 38.2969C122.789 38.6719 122.918 39.0234 123.106 39.3516C123.223 39.3281 123.375 39.3164 123.563 39.3164C124.031 39.3164 124.395 39.4805 124.652 39.8086C124.934 40.1133 125.18 40.4297 125.391 40.7578ZM135.234 52.3594C135.117 52.5469 134.977 52.7227 134.813 52.8867C134.649 53.0273 134.496 53.1797 134.356 53.3438C134.192 53.4141 134.004 53.4492 133.793 53.4492C133.606 53.4492 133.418 53.4492 133.231 53.4492C133.067 53.4258 132.902 53.4258 132.738 53.4492C132.598 53.4492 132.481 53.4961 132.387 53.5898C132.199 53.543 132.059 53.4609 131.965 53.3438C131.871 53.2031 131.707 53.1211 131.473 53.0977C131.379 53.0742 131.285 53.0742 131.192 53.0977C130.84 52.6992 130.512 52.2773 130.207 51.832C129.926 51.3867 129.656 50.9648 129.399 50.5664C129.375 49.6992 129.305 48.8203 129.188 47.9297C129.164 47.7188 129.129 47.5078 129.082 47.2969C129.035 47.0859 129 46.8867 128.977 46.6992C128.977 46.4648 128.988 46.2422 129.012 46.0312C129.059 45.7969 129.094 45.5859 129.117 45.3984C129.211 44.7188 129.317 44.0508 129.434 43.3945C129.551 42.7383 129.656 42.0703 129.75 41.3906C129.844 40.7812 129.891 40.1484 129.891 39.4922C129.891 38.8125 129.785 38.1797 129.574 37.5938L129.539 37.418C129.586 37.2305 129.633 37.0781 129.68 36.9609C129.75 36.8203 129.797 36.668 129.82 36.5039C129.867 36.2461 129.809 36.0586 129.645 35.9414C129.715 35.7539 129.832 35.6367 129.996 35.5898C130.16 35.5195 130.254 35.3789 130.277 35.168C130.301 35.0742 130.301 34.9805 130.277 34.8867C130.465 34.8164 130.652 34.7578 130.84 34.7109C131.051 34.6406 131.25 34.6289 131.438 34.6758C131.742 34.7227 132.012 34.8281 132.246 34.9922C132.481 35.1328 132.703 35.2969 132.914 35.4844C133.289 36.6094 133.442 37.8047 133.371 39.0703C133.301 40.3125 133.184 41.5664 133.02 42.832C132.856 44.0977 132.75 45.3398 132.703 46.5586C132.656 47.7539 132.844 48.8672 133.266 49.8984L133.336 49.9336C133.453 49.957 133.547 49.9219 133.617 49.8281C133.688 49.7109 133.781 49.6641 133.899 49.6875C133.992 49.7344 134.051 49.7578 134.074 49.7578C134.168 50.2266 134.32 50.6719 134.531 51.0938C134.742 51.5156 134.977 51.9375 135.234 52.3594ZM160.828 36.8203C160.688 37.0312 160.606 37.2656 160.582 37.5234C160.559 37.7812 160.547 38.0156 160.547 38.2266C160.547 38.5078 160.547 38.7891 160.547 39.0703C160.57 39.3281 160.582 39.5859 160.582 39.8438V40.3711C160.535 40.5352 160.465 40.6992 160.371 40.8633C160.277 41.0273 160.207 41.1914 160.16 41.3555C159.832 42.2227 159.668 43.0898 159.668 43.957V44.0273C159.551 44.3086 159.434 44.5664 159.317 44.8008C159.223 45.0352 159.129 45.2695 159.035 45.5039C158.942 45.7148 158.871 45.9492 158.824 46.207C158.777 46.4414 158.766 46.7227 158.789 47.0508C158.461 47.8711 158.027 48.6211 157.488 49.3008C156.949 49.957 156.422 50.6367 155.906 51.3398C155.414 51.5273 154.957 51.7734 154.535 52.0781C154.137 52.3828 153.75 52.7227 153.375 53.0977C152.649 53.332 151.934 53.6016 151.231 53.9062C150.527 54.2109 149.895 54.6211 149.332 55.1367C148.887 55.1836 148.442 55.2539 147.996 55.3477C147.551 55.4414 147.117 55.582 146.695 55.7695H146.274C146.063 55.7695 145.91 55.7227 145.817 55.6289C145.512 55.793 145.195 55.9102 144.867 55.9805C144.539 56.0273 144.211 56.0508 143.883 56.0508C143.461 56.0508 143.039 56.0273 142.617 55.9805C142.219 55.9102 141.809 55.8398 141.387 55.7695C141.152 55.4414 140.824 55.1953 140.402 55.0312C139.981 54.8438 139.606 54.668 139.277 54.5039C138.598 53.5664 138.106 52.6641 137.801 51.7969C137.496 50.9062 137.18 49.9102 136.852 48.8086C136.899 48.4805 136.981 48.1641 137.098 47.8594C137.215 47.5312 137.262 47.1797 137.238 46.8047C137.66 45.5859 138.211 44.4844 138.891 43.5C139.594 42.4922 140.391 41.5312 141.281 40.6172C141.281 40.4766 141.305 40.3594 141.352 40.2656C141.422 40.1719 141.434 40.0312 141.387 39.8438C141.41 39.8672 141.457 39.8789 141.527 39.8789C141.715 39.8789 141.832 39.832 141.879 39.7383C141.926 39.6211 141.938 39.4922 141.914 39.3516C142.758 38.8125 143.52 38.1914 144.199 37.4883C144.902 36.7852 145.699 36.1992 146.59 35.7305C146.66 35.5195 146.777 35.3438 146.942 35.2031C147.106 35.0625 147.234 34.8984 147.328 34.7109C148.078 34.5 148.758 34.1836 149.367 33.7617C149.977 33.3398 150.621 32.9648 151.301 32.6367C151.676 32.4258 152.027 32.2852 152.356 32.2148C152.707 32.1211 153.082 32.0273 153.481 31.9336C153.621 31.8867 153.75 31.8516 153.867 31.8281C153.984 31.8047 154.113 31.793 154.254 31.793C154.676 31.793 155.086 31.875 155.484 32.0391C155.883 32.1797 156.293 32.25 156.715 32.25C156.832 32.25 156.926 32.25 156.996 32.25C157.09 32.2266 157.184 32.2031 157.277 32.1797C157.676 32.6719 158.18 33.0469 158.789 33.3047C158.93 33.6562 159.094 33.9609 159.281 34.2188C159.492 34.4766 159.703 34.7344 159.914 34.9922C160.125 35.2266 160.313 35.4961 160.477 35.8008C160.664 36.082 160.781 36.4219 160.828 36.8203ZM157.313 38.6484C157.313 38.5312 157.301 38.4258 157.277 38.332C157.043 38.2617 156.82 38.168 156.609 38.0508C156.399 37.9336 156.164 37.875 155.906 37.875C155.742 37.875 155.578 37.9102 155.414 37.9805C155.391 37.8164 155.32 37.6992 155.203 37.6289C155.109 37.5586 154.992 37.5 154.852 37.4531C154.734 37.3828 154.606 37.3359 154.465 37.3125C154.348 37.2656 154.242 37.1953 154.149 37.1016C154.078 36.9141 153.996 36.7266 153.902 36.5391C153.832 36.3281 153.692 36.1758 153.481 36.082C153.27 36.293 153.024 36.4688 152.742 36.6094C152.461 36.7266 152.168 36.8438 151.863 36.9609C151.582 37.0781 151.301 37.2188 151.02 37.3828C150.762 37.5469 150.539 37.7461 150.352 37.9805H149.719C149.578 38.2383 149.379 38.4375 149.121 38.5781C148.863 38.6953 148.641 38.8711 148.453 39.1055C148.078 39.293 147.727 39.5273 147.399 39.8086C147.094 40.0664 146.789 40.3477 146.484 40.6523C146.18 40.9336 145.875 41.2266 145.57 41.5312C145.289 41.8359 144.984 42.1172 144.656 42.375C144.352 43.0312 144.012 43.6055 143.637 44.0977C143.285 44.5664 142.945 45.0469 142.617 45.5391C142.313 46.0312 142.043 46.5703 141.809 47.1562C141.598 47.7188 141.492 48.4219 141.492 49.2656V49.6172C141.492 49.7344 141.504 49.8516 141.527 49.9688C141.832 50.2969 142.078 50.6484 142.266 51.0234C142.477 51.3984 142.817 51.668 143.285 51.832C143.754 52.0195 144.246 52.1016 144.762 52.0781C145.301 52.0547 145.817 52.1133 146.309 52.2539C147.434 52.043 148.512 51.7031 149.543 51.2344C150.598 50.7422 151.594 50.1562 152.531 49.4766C152.672 49.3594 152.836 49.2422 153.024 49.125C153.211 48.9844 153.363 48.8438 153.481 48.7031C153.598 48.5859 153.692 48.457 153.762 48.3164C153.856 48.1758 153.949 48.0469 154.043 47.9297C154.231 47.625 154.442 47.3203 154.676 47.0156C154.91 46.7109 155.156 46.4297 155.414 46.1719C155.531 45.6562 155.684 45.1641 155.871 44.6953C156.059 44.2031 156.246 43.7227 156.434 43.2539C156.621 42.7852 156.774 42.3047 156.891 41.8125C157.031 41.3203 157.102 40.8047 157.102 40.2656C157.102 40.1484 157.09 40.0195 157.067 39.8789C157.067 39.7383 157.055 39.6094 157.031 39.4922C157.219 39.2344 157.313 38.9531 157.313 38.6484ZM186.387 34.0781C186.34 34.3594 186.27 34.6055 186.176 34.8164C186.106 35.0039 186.094 35.2617 186.141 35.5898C185.906 35.6133 185.719 35.6953 185.578 35.8359C185.461 35.9531 185.356 36.0938 185.262 36.2578C185.192 36.4219 185.109 36.5977 185.016 36.7852C184.945 36.9492 184.852 37.1016 184.734 37.2422C184.922 38.0859 185.027 38.9414 185.051 39.8086C185.074 40.6758 185.133 41.5312 185.227 42.375C185.344 43.4531 185.52 44.5195 185.754 45.5742C186.012 46.6055 186.141 47.6602 186.141 48.7383C186.141 49.0664 186.129 49.3711 186.106 49.6523C186.106 49.9336 186.106 50.2266 186.106 50.5312C186.106 50.7188 186.106 50.918 186.106 51.1289C186.129 51.3164 186.141 51.5039 186.141 51.6914C186.141 52.3711 186.047 53.0508 185.859 53.7305C185.695 54.4102 185.567 55.0898 185.473 55.7695C185.192 56.0273 184.945 56.3086 184.734 56.6133C184.547 56.918 184.348 57.1992 184.137 57.457C183.926 57.7148 183.68 57.9375 183.399 58.125C183.117 58.3359 182.766 58.4766 182.344 58.5469C182.274 58.7812 182.133 58.957 181.922 59.0742C181.734 59.1914 181.57 59.3555 181.43 59.5664H181.359C180.774 59.5664 180.27 59.4844 179.848 59.3203C179.426 59.1562 179.027 58.9688 178.652 58.7578C178.301 58.5469 177.938 58.3242 177.563 58.0898C177.188 57.8555 176.754 57.668 176.262 57.5273C175.606 56.9883 175.008 56.4023 174.469 55.7695C173.93 55.1133 173.32 54.5273 172.641 54.0117C172.477 53.543 172.254 53.1562 171.973 52.8516C171.715 52.5469 171.457 52.1953 171.199 51.7969C171.082 51.6328 170.988 51.4805 170.918 51.3398C170.871 51.1992 170.801 51.0352 170.707 50.8477C170.637 50.6602 170.52 50.5312 170.356 50.4609C170.215 50.3906 170.086 50.3086 169.969 50.2148C169.781 49.4883 169.512 48.8203 169.16 48.2109C168.809 47.6016 168.399 47.0156 167.93 46.4531C167.789 46.7109 167.672 46.9922 167.578 47.2969C167.508 47.5781 167.438 47.8711 167.367 48.1758C167.297 48.457 167.203 48.75 167.086 49.0547C166.992 49.3359 166.863 49.5938 166.699 49.8281V49.9336C166.699 50.0508 166.746 50.1211 166.84 50.1445C166.934 50.168 166.981 50.2383 166.981 50.3555C166.981 50.3789 166.969 50.4023 166.945 50.4258C166.945 50.4492 166.945 50.4727 166.945 50.4961C166.828 50.5898 166.734 50.707 166.664 50.8477C166.617 50.9883 166.5 51.0703 166.313 51.0938C166.336 51.2109 166.348 51.3281 166.348 51.4453V51.7617C166.348 52.4414 166.266 53.1211 166.102 53.8008C165.961 54.4805 165.891 55.1719 165.891 55.875V56.332C165.891 56.4961 165.902 56.6484 165.926 56.7891C165.973 56.9297 166.043 57.0703 166.137 57.2109C166.231 57.3516 166.277 57.4805 166.277 57.5977C166.277 57.7617 166.207 57.9141 166.067 58.0547C166.231 58.1719 166.418 58.3008 166.629 58.4414C166.84 58.582 167.027 58.7344 167.192 58.8984C167.379 59.0859 167.531 59.2734 167.649 59.4609C167.766 59.6719 167.824 59.8945 167.824 60.1289C167.824 60.5273 167.695 60.8086 167.438 60.9727C167.18 61.1367 166.863 61.2656 166.488 61.3594C166.137 61.4531 165.762 61.5352 165.363 61.6055C164.988 61.6992 164.672 61.8516 164.414 62.0625H164.309C164.027 62.0625 163.817 61.9805 163.676 61.8164C163.535 61.6523 163.324 61.5703 163.043 61.5703C162.598 60.8438 162.293 60.0234 162.129 59.1094C161.965 58.2188 161.883 57.3633 161.883 56.543C161.883 55.5352 161.977 54.5273 162.164 53.5195C162.328 52.5117 162.539 51.5156 162.797 50.5312C163.031 49.5469 163.289 48.5742 163.57 47.6133C163.875 46.6289 164.156 45.6445 164.414 44.6602L164.449 44.5547C164.449 44.4375 164.414 44.3555 164.344 44.3086C164.297 44.2617 164.274 44.1914 164.274 44.0977C164.274 44.0508 164.285 44.0273 164.309 44.0273C164.379 43.793 164.449 43.5703 164.52 43.3594C164.613 43.1484 164.684 42.9141 164.731 42.6562C164.871 42 164.965 41.332 165.012 40.6523C165.082 39.9492 165.117 39.2578 165.117 38.5781C165.141 37.8984 165.164 37.2188 165.188 36.5391C165.234 35.8359 165.317 35.1445 165.434 34.4648C165.621 34.2773 165.797 34.0781 165.961 33.8672C166.125 33.6562 166.336 33.4688 166.594 33.3047C167.063 33.3281 167.531 33.3984 168 33.5156C168.469 33.6328 168.914 33.8203 169.336 34.0781C169.617 35.0859 169.805 36.0938 169.899 37.1016C170.016 38.1094 170.203 39.1172 170.461 40.125V40.2305C170.461 40.3477 170.52 40.4062 170.637 40.4062C170.777 40.3828 170.883 40.418 170.953 40.5117C170.906 40.582 170.871 40.6641 170.848 40.7578C170.848 40.8516 170.848 40.9453 170.848 41.0391V41.6367C170.895 41.8242 170.953 42.0234 171.024 42.2344C171.094 42.4453 171.246 42.5742 171.481 42.6211C171.598 43.3711 171.774 44.0625 172.008 44.6953C172.242 45.3281 172.512 45.9375 172.817 46.5234C173.121 47.1094 173.449 47.6953 173.801 48.2812C174.152 48.8438 174.516 49.4414 174.891 50.0742C175.477 50.5195 175.981 51.0352 176.402 51.6211C176.824 52.1836 177.246 52.7344 177.668 53.2734C178.113 53.7891 178.606 54.2461 179.145 54.6445C179.707 55.043 180.434 55.2891 181.324 55.3828C181.442 55.2891 181.524 55.1602 181.57 54.9961L181.746 54.5039C181.817 54.3398 181.887 54.1992 181.957 54.082C182.051 53.9414 182.18 53.8359 182.344 53.7656C182.391 53.1094 182.438 52.4414 182.484 51.7617C182.555 51.082 182.707 50.4375 182.942 49.8281C182.824 49.6172 182.766 49.3594 182.766 49.0547C182.766 48.8203 182.777 48.5977 182.801 48.3867C182.848 48.1758 182.871 47.9648 182.871 47.7539C182.871 47.3086 182.777 46.9453 182.59 46.6641C182.59 46.5 182.602 46.3359 182.625 46.1719C182.649 45.9844 182.719 45.8086 182.836 45.6445C182.649 45.1758 182.496 44.6836 182.379 44.168C182.285 43.6523 182.238 43.125 182.238 42.5859C182.238 42.2812 182.274 41.9648 182.344 41.6367C182.203 41.2852 182.109 40.875 182.063 40.4062L181.922 38.9648C181.875 38.4727 181.805 38.0156 181.711 37.5938C181.617 37.1719 181.442 36.832 181.184 36.5742C181.324 36.3633 181.395 36.1172 181.395 35.8359C181.395 35.3672 181.324 34.9219 181.184 34.5C181.043 34.0781 180.973 33.6328 180.973 33.1641C180.973 32.8359 181.043 32.5078 181.184 32.1797C181.699 32.2031 182.203 32.2617 182.695 32.3555C183.211 32.4258 183.715 32.4609 184.207 32.4609C184.348 32.6484 184.512 32.8008 184.699 32.918C184.887 33.0352 185.086 33.1523 185.297 33.2695C185.508 33.3633 185.707 33.4688 185.895 33.5859C186.106 33.7031 186.27 33.8672 186.387 34.0781ZM227.836 36.5391C227.836 36.9141 227.766 37.3008 227.625 37.6992C227.508 38.0977 227.356 38.4609 227.168 38.7891C226.863 38.8359 226.582 38.9414 226.324 39.1055C226.09 39.2695 225.902 39.375 225.762 39.4219C225.457 39.4688 225.094 39.4922 224.672 39.4922C224.274 39.4688 223.91 39.4688 223.582 39.4922C222.949 39.5391 222.317 39.6094 221.684 39.7031C221.074 39.7969 220.465 39.9141 219.856 40.0547C219.809 40.0547 219.762 40.0664 219.715 40.0898C219.668 40.0898 219.645 40.1133 219.645 40.1602C219.645 40.207 219.656 40.2539 219.68 40.3008C219.703 40.3477 219.715 40.3945 219.715 40.4414C219.715 40.5117 219.645 40.5469 219.504 40.5469C219.246 40.5469 219.07 40.4648 218.977 40.3008C218.227 40.4883 217.477 40.6875 216.727 40.8984C215.977 41.0859 215.227 41.2734 214.477 41.4609C214.102 41.5312 213.727 41.6016 213.352 41.6719C213 41.7422 212.637 41.8359 212.262 41.9531C212.074 42 211.887 42.082 211.699 42.1992L211.137 42.5508C211.02 42.5273 210.914 42.5156 210.82 42.5156C210.727 42.4922 210.633 42.4805 210.539 42.4805C210.141 42.4805 209.719 42.5625 209.274 42.7266C208.828 42.8672 208.442 43.0664 208.113 43.3242H207.867C207.633 43.3242 207.469 43.2891 207.375 43.2188C207.164 43.1953 207.035 43.2656 206.988 43.4297C206.942 43.5703 206.859 43.6992 206.742 43.8164C205.945 43.8867 205.16 44.0273 204.387 44.2383C203.613 44.4492 202.852 44.6836 202.102 44.9414C201.352 45.1758 200.59 45.4219 199.817 45.6797C199.067 45.9141 198.305 46.1016 197.531 46.2422C197.438 46.7109 197.391 47.25 197.391 47.8594C197.391 48.3281 197.426 48.8672 197.496 49.4766C197.59 50.0859 197.777 50.6016 198.059 51.0234V51.0938C198.059 51.2109 198.012 51.293 197.918 51.3398C197.824 51.3867 197.777 51.4688 197.777 51.5859C197.777 52.1953 197.836 52.7695 197.953 53.3086C198.094 53.8477 198.234 54.375 198.375 54.8906C198.516 55.4062 198.645 55.9219 198.762 56.4375C198.902 56.9531 198.973 57.4805 198.973 58.0195C198.973 58.1602 198.961 58.2891 198.938 58.4062C198.938 58.5469 198.926 58.6875 198.902 58.8281C198.973 59.0391 199.09 59.2148 199.254 59.3555C199.418 59.4961 199.559 59.6602 199.676 59.8477C199.699 59.9648 199.711 60.0703 199.711 60.1641V60.5156C199.711 60.9141 199.664 61.2656 199.57 61.5703C199.477 61.875 199.359 62.1562 199.219 62.4141C199.078 62.6953 198.926 62.9648 198.762 63.2227C198.598 63.5039 198.445 63.8086 198.305 64.1367C198.07 64.1836 197.883 64.207 197.742 64.207C197.391 64.207 197.098 64.1133 196.863 63.9258C196.652 63.7383 196.465 63.5039 196.301 63.2227C196.137 62.9648 195.973 62.6953 195.809 62.4141C195.668 62.1328 195.492 61.8984 195.281 61.7109C195.305 61.5938 195.317 61.4883 195.317 61.3945C195.34 61.3008 195.352 61.1953 195.352 61.0781C195.352 60.6094 195.27 60.1523 195.106 59.707C194.965 59.2617 194.801 58.8398 194.613 58.4414C194.59 57.6445 194.508 56.8594 194.367 56.0859C194.227 55.3125 194.027 54.5508 193.77 53.8008C193.817 53.5195 193.852 53.25 193.875 52.9922C193.899 52.7109 193.91 52.4414 193.91 52.1836C193.91 51.5039 193.875 50.8242 193.805 50.1445C193.734 49.4648 193.723 48.7852 193.77 48.1055C193.699 47.9883 193.629 47.8945 193.559 47.8242C193.488 47.7305 193.43 47.625 193.383 47.5078H193.242C192.891 47.5078 192.551 47.543 192.223 47.6133C191.895 47.6602 191.567 47.6836 191.238 47.6836C191.121 47.6836 191.016 47.6836 190.922 47.6836C190.828 47.6602 190.723 47.6367 190.606 47.6133C190.348 47.3555 190.149 47.0625 190.008 46.7344C189.867 46.4062 189.797 46.0664 189.797 45.7148C189.797 45.1992 189.938 44.7305 190.219 44.3086C190.805 44.168 191.379 44.0039 191.942 43.8164C192.527 43.6055 193.09 43.3594 193.629 43.0781C193.699 42.7266 193.734 42.375 193.734 42.0234C193.758 41.6719 193.887 41.3438 194.121 41.0391C194.051 40.8516 193.934 40.6875 193.77 40.5469C193.629 40.3828 193.559 40.1953 193.559 39.9844C193.559 39.8672 193.582 39.7148 193.629 39.5273C193.863 39.2695 194.027 38.9414 194.121 38.543C194.215 38.1445 194.297 37.7227 194.367 37.2773C194.438 36.832 194.508 36.3867 194.578 35.9414C194.672 35.4961 194.824 35.0977 195.035 34.7461C194.988 34.5586 194.953 34.3594 194.93 34.1484C194.906 33.9141 194.895 33.7031 194.895 33.5156C194.895 33.2344 194.906 32.9531 194.93 32.6719C194.977 32.3672 195.047 32.0859 195.141 31.8281C194.883 31.5234 194.672 31.1719 194.508 30.7734C194.344 30.3516 194.262 29.9414 194.262 29.543C194.262 28.7695 194.637 28.2773 195.387 28.0664C195.363 27.9727 195.34 27.8906 195.317 27.8203C195.317 27.75 195.317 27.6797 195.317 27.6094C195.317 27.3984 195.375 27.1992 195.492 27.0117C195.609 26.8242 195.703 26.6367 195.774 26.4492C195.656 26.1445 195.598 25.8867 195.598 25.6758C195.598 25.4883 195.633 25.3242 195.703 25.1836C195.774 25.0195 195.832 24.8438 195.879 24.6562C195.949 24.4219 195.996 24.2109 196.02 24.0234C196.067 23.8359 196.137 23.6719 196.231 23.5312C196.324 23.3906 196.442 23.2852 196.582 23.2148C196.746 23.1445 196.992 23.1094 197.32 23.1094C197.836 23.1094 198.328 23.2734 198.797 23.6016C199.289 23.9062 199.664 24.2578 199.922 24.6562C200.18 24.6328 200.402 24.5859 200.59 24.5156C200.801 24.4219 200.988 24.3398 201.152 24.2695C201.34 24.1992 201.527 24.1406 201.715 24.0938C201.926 24.0234 202.172 24 202.453 24.0234C202.524 23.8594 202.641 23.7539 202.805 23.707C202.992 23.6367 203.18 23.5898 203.367 23.5664C203.555 23.5195 203.731 23.4609 203.895 23.3906C204.059 23.3203 204.164 23.1914 204.211 23.0039C204.305 23.0742 204.41 23.1094 204.527 23.1094C204.645 23.1094 204.762 23.0977 204.879 23.0742C204.996 23.0273 205.125 23.0039 205.266 23.0039C205.406 23.0039 205.524 23.0508 205.617 23.1445C206.227 22.8164 206.871 22.582 207.551 22.4414C208.254 22.2773 208.945 22.1836 209.625 22.1602C211.242 21.2695 212.942 20.6602 214.723 20.332C216.527 20.0039 218.332 19.8398 220.137 19.8398C220.395 19.8398 220.641 19.8398 220.875 19.8398C221.133 19.8164 221.379 19.8281 221.613 19.875C221.871 19.9219 222.152 20.0039 222.457 20.1211C222.785 20.2383 223.102 20.3789 223.406 20.543C223.734 20.707 224.039 20.8945 224.32 21.1055C224.602 21.293 224.836 21.4688 225.024 21.6328C225.211 22.0547 225.305 22.4648 225.305 22.8633C225.305 23.0508 225.293 23.2383 225.27 23.4258C225.246 23.5898 225.234 23.7656 225.234 23.9531C225.234 24.2344 225.293 24.5508 225.41 24.9023C225.34 24.8789 225.223 24.8672 225.059 24.8672C224.848 24.8672 224.672 24.9141 224.531 25.0078C224.391 25.1016 224.262 25.207 224.145 25.3242C224.027 25.4414 223.91 25.5469 223.793 25.6406C223.699 25.7344 223.606 25.7812 223.512 25.7812C223.324 25.7812 223.16 25.7461 223.02 25.6758C222.902 25.6055 222.774 25.5352 222.633 25.4648C222.516 25.3711 222.387 25.3008 222.246 25.2539C222.106 25.1836 221.942 25.1602 221.754 25.1836V25.043C221.754 24.7852 221.672 24.6211 221.508 24.5508C221.344 24.457 221.215 24.3281 221.121 24.1641C220.77 24.1406 220.418 24.0938 220.067 24.0234C219.738 23.9531 219.399 23.918 219.047 23.918C218.578 23.918 218.215 24.082 217.957 24.4102C217.84 24.3633 217.734 24.3047 217.641 24.2344C217.57 24.1641 217.465 24.1406 217.324 24.1641H217.219C215.953 24.1641 214.711 24.3047 213.492 24.5859C212.274 24.8438 211.067 25.1719 209.871 25.5703C208.676 25.9453 207.481 26.3555 206.285 26.8008C205.09 27.2461 203.895 27.6328 202.699 27.9609C202.418 28.3359 202.125 28.6172 201.82 28.8047C201.516 28.9688 201.211 29.1094 200.906 29.2266C200.625 29.3438 200.344 29.4609 200.063 29.5781C199.781 29.6953 199.535 29.8828 199.324 30.1406C199.137 30.3984 198.984 30.7617 198.867 31.2305C198.774 31.6758 198.75 32.2969 198.797 33.0938C198.68 33.2344 198.609 33.3867 198.586 33.5508C198.563 33.7148 198.539 33.8789 198.516 34.043C198.492 34.1836 198.457 34.3242 198.41 34.4648C198.363 34.6055 198.281 34.7344 198.164 34.8516C198.211 35.0859 198.246 35.3203 198.27 35.5547C198.293 35.7891 198.305 36.0234 198.305 36.2578C198.305 37.2422 198.141 38.2031 197.813 39.1406C197.93 39.3281 197.988 39.5391 197.988 39.7734C197.988 40.0312 197.953 40.2656 197.883 40.4766C197.813 40.6875 197.777 40.9219 197.777 41.1797C197.777 41.4375 197.824 41.6484 197.918 41.8125C198.059 41.8125 198.141 41.8594 198.164 41.9531H198.375C198.797 41.9531 199.16 41.8477 199.465 41.6367C199.77 41.4258 200.098 41.3203 200.449 41.3203C200.52 41.3203 200.602 41.3438 200.695 41.3906C200.789 41.4375 200.871 41.4609 200.942 41.4609C201.106 41.4609 201.176 41.4023 201.152 41.2852C201.129 41.168 201.188 41.0859 201.328 41.0391L202.594 40.8281C203.391 40.6875 204.141 40.5234 204.844 40.3359C205.57 40.125 206.285 39.8203 206.988 39.4219C207.152 39.4922 207.34 39.5273 207.551 39.5273C207.738 39.5273 207.938 39.5039 208.149 39.457C208.359 39.3867 208.559 39.3516 208.746 39.3516C208.91 39.3516 209.039 39.375 209.133 39.4219C209.274 39.3281 209.449 39.2578 209.66 39.2109C209.871 39.1406 209.988 39 210.012 38.7891H210.082C210.176 38.7891 210.246 38.8125 210.293 38.8594C210.34 38.9062 210.41 38.9297 210.504 38.9297H210.645C211.137 38.6953 211.582 38.5195 211.981 38.4023C212.637 38.2383 213.34 38.0977 214.09 37.9805C214.84 37.8398 215.508 37.6055 216.094 37.2773C216.774 37.2773 217.43 37.1719 218.063 36.9609C218.719 36.7266 219.375 36.6094 220.031 36.6094C220.336 36.6094 220.617 36.6562 220.875 36.75C221.109 36.5859 221.379 36.4688 221.684 36.3984C222.012 36.3281 222.281 36.1992 222.492 36.0117C222.633 36.0352 222.774 36.0586 222.914 36.082C223.078 36.082 223.242 36.082 223.406 36.082C224.109 36.082 224.777 35.9883 225.41 35.8008C226.067 35.5898 226.734 35.4375 227.414 35.3438C227.578 35.5312 227.684 35.7305 227.731 35.9414C227.801 36.1289 227.836 36.3281 227.836 36.5391ZM243.692 51.4805C243.598 51.832 243.445 52.125 243.234 52.3594C243.024 52.5938 242.777 52.8047 242.496 52.9922C242.238 53.1797 241.957 53.3555 241.652 53.5195C241.348 53.6602 241.055 53.8242 240.774 54.0117H240.317C239.332 54.0117 238.57 53.7773 238.031 53.3086C237.516 52.8164 237.117 52.2188 236.836 51.5156C236.555 50.7891 236.344 50.0156 236.203 49.1953C236.086 48.375 235.934 47.625 235.746 46.9453C235.465 47.1797 235.231 47.4609 235.043 47.7891C234.856 48.0938 234.656 48.3984 234.445 48.7031C234.258 49.0078 234.035 49.2891 233.777 49.5469C233.543 49.8047 233.227 49.9805 232.828 50.0742C232.758 50.2383 232.676 50.4023 232.582 50.5664C232.512 50.7305 232.465 50.9062 232.442 51.0938C231.926 51.375 231.457 51.7031 231.035 52.0781C230.613 52.4531 230.192 52.8398 229.77 53.2383C229.348 53.6367 228.914 54.0234 228.469 54.3984C228.047 54.75 227.567 55.043 227.027 55.2773C227.004 55.2539 226.957 55.2422 226.887 55.2422C226.606 55.2422 226.348 55.3125 226.113 55.4531C225.879 55.5703 225.621 55.6289 225.34 55.6289C225.152 55.6289 224.977 55.5938 224.813 55.5234C224.672 55.4531 224.52 55.3711 224.356 55.2773C224.215 55.1836 224.063 55.1133 223.899 55.0664C223.734 55.0195 223.559 55.0078 223.371 55.0312C223.137 54.6094 222.82 54.2227 222.422 53.8711C222.047 53.4961 221.813 53.0742 221.719 52.6055C221.672 52.3945 221.637 52.1836 221.613 51.9727C221.613 51.7383 221.59 51.5039 221.543 51.2695C221.473 50.918 221.379 50.5664 221.262 50.2148C221.145 49.8398 221.051 49.4648 220.981 49.0898C221.098 48.457 221.215 47.7656 221.332 47.0156C221.426 46.2422 221.543 45.4805 221.684 44.7305C221.848 43.957 222.059 43.2305 222.317 42.5508C222.598 41.8477 222.949 41.25 223.371 40.7578L223.336 40.5117C223.336 40.1367 223.406 39.7852 223.547 39.457C223.688 39.1289 223.84 38.8125 224.004 38.5078C224.168 38.2031 224.309 37.8984 224.426 37.5938C224.543 37.2891 224.567 36.9492 224.496 36.5742C224.777 36.4336 225.07 36.3164 225.375 36.2227C225.68 36.1289 225.996 36.082 226.324 36.082C226.629 36.082 226.91 36.1289 227.168 36.2227C227.121 36.4102 227.203 36.5273 227.414 36.5742V36.6797C227.414 37.1719 227.356 37.6523 227.238 38.1211C227.121 38.5898 226.981 39.0586 226.817 39.5273C226.652 39.9727 226.488 40.4297 226.324 40.8984C226.184 41.3438 226.078 41.8008 226.008 42.2695C225.914 42.293 225.844 42.3398 225.797 42.4102C225.774 42.4805 225.75 42.5508 225.727 42.6211C225.703 42.6914 225.668 42.75 225.621 42.7969C225.574 42.8438 225.504 42.8672 225.41 42.8672C225.27 43.6875 225.117 44.5078 224.953 45.3281C224.813 46.125 224.742 46.9336 224.742 47.7539C224.742 48.2461 224.789 48.75 224.883 49.2656C224.977 49.7812 225.152 50.2734 225.41 50.7422L225.551 50.707C225.809 50.707 226.008 50.7656 226.149 50.8828C226.313 51 226.524 51.1172 226.781 51.2344C226.969 51.1875 227.145 51.1289 227.309 51.0586C227.473 50.9648 227.543 50.8125 227.52 50.6016C227.824 50.5781 228.082 50.5078 228.293 50.3906C228.504 50.25 228.692 50.0977 228.856 49.9336L229.383 49.4414C229.57 49.2773 229.793 49.1602 230.051 49.0898C230.051 48.9492 230.086 48.8438 230.156 48.7734L230.367 48.5625C230.438 48.4922 230.484 48.4219 230.508 48.3516C230.555 48.2578 230.567 48.1289 230.543 47.9648C230.824 47.9414 231.035 47.8711 231.176 47.7539C231.34 47.6367 231.481 47.5078 231.598 47.3672C231.738 47.2031 231.867 47.0391 231.984 46.875C232.102 46.7109 232.254 46.5703 232.442 46.4531C232.606 46.1016 232.828 45.6328 233.109 45.0469C233.414 44.4609 233.707 43.8516 233.988 43.2188C234.293 42.5859 234.551 41.9883 234.762 41.4258C234.996 40.8398 235.113 40.3945 235.113 40.0898C235.113 39.9727 235.078 39.8672 235.008 39.7734C234.961 39.6797 234.949 39.5742 234.973 39.457V39.3516C235.16 39.1172 235.324 38.8594 235.465 38.5781C235.629 38.2969 235.793 38.0273 235.957 37.7695C236.145 37.5117 236.344 37.2773 236.555 37.0664C236.766 36.8555 237.035 36.6914 237.363 36.5742C237.738 36.6914 238.113 36.7734 238.488 36.8203C238.887 36.8672 239.262 36.9609 239.613 37.1016C239.637 37.6875 239.695 38.3672 239.789 39.1406C239.883 39.9141 240.047 40.5703 240.281 41.1094C240.281 41.4141 240.27 41.707 240.246 41.9883C240.246 42.2695 240.246 42.5508 240.246 42.832C240.246 43.3008 240.258 43.7812 240.281 44.2734C240.328 44.7656 240.41 45.2227 240.527 45.6445C240.363 45.9961 240.281 46.3711 240.281 46.7695C240.281 47.3086 240.363 47.8242 240.527 48.3164C240.692 48.7852 240.809 49.2891 240.879 49.8281C241.184 50.25 241.582 50.4609 242.074 50.4609C242.192 50.4609 242.285 50.4492 242.356 50.4258C242.449 50.4023 242.543 50.3672 242.637 50.3203C242.824 50.5312 242.988 50.7422 243.129 50.9531C243.293 51.1406 243.481 51.3164 243.692 51.4805ZM263.449 52.7461C263.449 53.1445 263.344 53.4961 263.133 53.8008C262.945 54.082 262.875 54.4336 262.922 54.8555C262.594 55.043 262.324 55.2891 262.113 55.5938C261.902 55.8984 261.703 56.2148 261.516 56.543C259.969 57.5508 258.305 58.3594 256.524 58.9688C254.766 59.6016 252.949 59.918 251.074 59.918C250.957 59.918 250.852 59.8594 250.758 59.7422C250.664 59.6484 250.57 59.543 250.477 59.4258C250.383 59.3086 250.277 59.1914 250.16 59.0742C250.067 58.9805 249.949 58.9336 249.809 58.9336C249.645 58.9336 249.516 58.9688 249.422 59.0391C249.422 58.9922 249.422 58.9453 249.422 58.8984C249.445 58.875 249.457 58.8398 249.457 58.793C249.457 58.5117 249.422 58.2188 249.352 57.9141C249.281 57.6328 249.246 57.3516 249.246 57.0703C249.246 56.7422 249.305 56.4727 249.422 56.2617H249.844C250.078 56.2617 250.301 56.25 250.512 56.2266C250.746 56.1797 250.992 56.1562 251.25 56.1562C251.508 56.1562 251.742 56.2266 251.953 56.3672C253.242 56.3203 254.461 56.0859 255.609 55.6641C256.781 55.2188 257.965 54.7852 259.16 54.3633C259.348 54.1055 259.453 53.8242 259.477 53.5195C259.524 53.1914 259.617 52.8867 259.758 52.6055C259.149 52.0898 258.527 51.6914 257.895 51.4102C257.285 51.1055 256.57 51 255.75 51.0938C255.258 50.7891 254.731 50.6133 254.168 50.5664C253.629 50.5195 253.078 50.4492 252.516 50.3555C252.375 50.332 252.223 50.3086 252.059 50.2852C251.918 50.2383 251.766 50.2148 251.602 50.2148C251.484 50.2148 251.367 50.25 251.25 50.3203C251.156 50.3672 251.133 50.4492 251.18 50.5664C251.063 50.3789 250.899 50.2734 250.688 50.25C250.5 50.2031 250.336 50.1094 250.195 49.9688C249.445 49.9219 248.789 49.793 248.227 49.582C247.664 49.3477 247.043 49.0898 246.363 48.8086C246.176 48.7383 245.988 48.6914 245.801 48.668C245.637 48.6211 245.473 48.5508 245.309 48.457C244.887 48.2461 244.547 47.9648 244.289 47.6133C244.031 47.2617 243.832 46.875 243.692 46.4531C243.527 46.0078 243.41 45.5508 243.34 45.082C243.27 44.6133 243.199 44.1797 243.129 43.7812C243.34 43.4062 243.539 43.0195 243.727 42.6211C243.891 42.2227 244.031 41.8008 244.149 41.3555C244.289 41.2852 244.43 41.2266 244.57 41.1797C244.711 41.1328 244.863 41.0742 245.027 41.0039C245.004 40.957 244.992 40.8984 244.992 40.8281C244.992 40.7109 245.027 40.5938 245.098 40.4766C245.192 40.3594 245.215 40.2422 245.168 40.125C245.684 39.6562 246.176 39.1758 246.645 38.6836C247.137 38.168 247.559 37.6055 247.91 36.9961C248.262 36.8789 248.543 36.7031 248.754 36.4688C248.965 36.2344 249.176 36 249.387 35.7656C249.598 35.5078 249.832 35.2852 250.09 35.0977C250.348 34.8867 250.676 34.7578 251.074 34.7109C251.168 34.5469 251.297 34.418 251.461 34.3242C251.625 34.207 251.789 34.1016 251.953 34.0078C252.117 33.9141 252.27 33.8086 252.41 33.6914C252.551 33.5742 252.656 33.4102 252.727 33.1992C253.102 33.1992 253.442 33.1289 253.746 32.9883C254.074 32.8477 254.391 32.6953 254.695 32.5312C255 32.3672 255.305 32.2148 255.609 32.0742C255.938 31.9336 256.289 31.8633 256.664 31.8633C256.758 31.8633 256.852 31.875 256.945 31.8984C257.039 31.8984 257.145 31.9102 257.262 31.9336C257.426 32.0977 257.531 32.2969 257.578 32.5312C257.649 32.7422 257.695 32.9766 257.719 33.2344C257.742 33.4922 257.754 33.75 257.754 34.0078C257.777 34.2656 257.824 34.5 257.895 34.7109C257.684 35.1094 257.449 35.5078 257.192 35.9062C256.957 36.3047 256.641 36.6094 256.242 36.8203H256.172C256.008 36.8438 255.856 36.8086 255.715 36.7148C255.574 36.6211 255.41 36.5742 255.223 36.5742C255.106 36.5742 255.012 36.6094 254.942 36.6797L254.766 36.8555C254.719 36.9023 254.649 36.9492 254.555 36.9961C254.484 37.043 254.379 37.043 254.238 36.9961C253.91 37.1133 253.781 37.3125 253.852 37.5938C253.406 37.6406 253.031 37.7812 252.727 38.0156C252.422 38.2266 252.141 38.4727 251.883 38.7539C251.625 39.0117 251.367 39.2578 251.109 39.4922C250.852 39.7031 250.547 39.8203 250.195 39.8438C249.797 40.5469 249.305 41.168 248.719 41.707C248.156 42.2461 247.688 42.8555 247.313 43.5352C247.383 43.7227 247.43 43.9219 247.453 44.1328C247.477 44.3438 247.512 44.5664 247.559 44.8008C247.77 45.082 248.016 45.3281 248.297 45.5391C248.602 45.75 248.895 45.9609 249.176 46.1719H249.281C249.75 46.1719 250.184 46.2656 250.582 46.4531C250.981 46.6172 251.402 46.6992 251.848 46.6992C252.082 46.6992 252.281 46.6523 252.445 46.5586C253.055 46.6992 253.652 46.8164 254.238 46.9102C254.848 47.0039 255.457 47.0742 256.067 47.1211C256.371 47.168 256.676 47.1914 256.981 47.1914C257.309 47.1914 257.613 47.2266 257.895 47.2969C258.152 47.3672 258.41 47.4609 258.668 47.5781C258.926 47.6719 259.184 47.7773 259.442 47.8945C259.981 48.1289 260.484 48.3867 260.953 48.668C261.445 48.9492 261.879 49.2891 262.254 49.6875C262.629 50.0625 262.922 50.5078 263.133 51.0234C263.344 51.5156 263.449 52.0898 263.449 52.7461ZM273.117 52.3594C273 52.5469 272.859 52.7227 272.695 52.8867C272.531 53.0273 272.379 53.1797 272.238 53.3438C272.074 53.4141 271.887 53.4492 271.676 53.4492C271.488 53.4492 271.301 53.4492 271.113 53.4492C270.949 53.4258 270.785 53.4258 270.621 53.4492C270.481 53.4492 270.363 53.4961 270.27 53.5898C270.082 53.543 269.942 53.4609 269.848 53.3438C269.754 53.2031 269.59 53.1211 269.356 53.0977C269.262 53.0742 269.168 53.0742 269.074 53.0977C268.723 52.6992 268.395 52.2773 268.09 51.832C267.809 51.3867 267.539 50.9648 267.281 50.5664C267.258 49.6992 267.188 48.8203 267.07 47.9297C267.047 47.7188 267.012 47.5078 266.965 47.2969C266.918 47.0859 266.883 46.8867 266.859 46.6992C266.859 46.4648 266.871 46.2422 266.895 46.0312C266.942 45.7969 266.977 45.5859 267 45.3984C267.094 44.7188 267.199 44.0508 267.317 43.3945C267.434 42.7383 267.539 42.0703 267.633 41.3906C267.727 40.7812 267.774 40.1484 267.774 39.4922C267.774 38.8125 267.668 38.1797 267.457 37.5938L267.422 37.418C267.469 37.2305 267.516 37.0781 267.563 36.9609C267.633 36.8203 267.68 36.668 267.703 36.5039C267.75 36.2461 267.692 36.0586 267.527 35.9414C267.598 35.7539 267.715 35.6367 267.879 35.5898C268.043 35.5195 268.137 35.3789 268.16 35.168C268.184 35.0742 268.184 34.9805 268.16 34.8867C268.348 34.8164 268.535 34.7578 268.723 34.7109C268.934 34.6406 269.133 34.6289 269.32 34.6758C269.625 34.7227 269.895 34.8281 270.129 34.9922C270.363 35.1328 270.586 35.2969 270.797 35.4844C271.172 36.6094 271.324 37.8047 271.254 39.0703C271.184 40.3125 271.067 41.5664 270.902 42.832C270.738 44.0977 270.633 45.3398 270.586 46.5586C270.539 47.7539 270.727 48.8672 271.149 49.8984L271.219 49.9336C271.336 49.957 271.43 49.9219 271.5 49.8281C271.57 49.7109 271.664 49.6641 271.781 49.6875C271.875 49.7344 271.934 49.7578 271.957 49.7578C272.051 50.2266 272.203 50.6719 272.414 51.0938C272.625 51.5156 272.859 51.9375 273.117 52.3594ZM298.711 36.8203C298.57 37.0312 298.488 37.2656 298.465 37.5234C298.442 37.7812 298.43 38.0156 298.43 38.2266C298.43 38.5078 298.43 38.7891 298.43 39.0703C298.453 39.3281 298.465 39.5859 298.465 39.8438V40.3711C298.418 40.5352 298.348 40.6992 298.254 40.8633C298.16 41.0273 298.09 41.1914 298.043 41.3555C297.715 42.2227 297.551 43.0898 297.551 43.957V44.0273C297.434 44.3086 297.317 44.5664 297.199 44.8008C297.106 45.0352 297.012 45.2695 296.918 45.5039C296.824 45.7148 296.754 45.9492 296.707 46.207C296.66 46.4414 296.649 46.7227 296.672 47.0508C296.344 47.8711 295.91 48.6211 295.371 49.3008C294.832 49.957 294.305 50.6367 293.789 51.3398C293.297 51.5273 292.84 51.7734 292.418 52.0781C292.02 52.3828 291.633 52.7227 291.258 53.0977C290.531 53.332 289.817 53.6016 289.113 53.9062C288.41 54.2109 287.777 54.6211 287.215 55.1367C286.77 55.1836 286.324 55.2539 285.879 55.3477C285.434 55.4414 285 55.582 284.578 55.7695H284.156C283.945 55.7695 283.793 55.7227 283.699 55.6289C283.395 55.793 283.078 55.9102 282.75 55.9805C282.422 56.0273 282.094 56.0508 281.766 56.0508C281.344 56.0508 280.922 56.0273 280.5 55.9805C280.102 55.9102 279.692 55.8398 279.27 55.7695C279.035 55.4414 278.707 55.1953 278.285 55.0312C277.863 54.8438 277.488 54.668 277.16 54.5039C276.481 53.5664 275.988 52.6641 275.684 51.7969C275.379 50.9062 275.063 49.9102 274.734 48.8086C274.781 48.4805 274.863 48.1641 274.981 47.8594C275.098 47.5312 275.145 47.1797 275.121 46.8047C275.543 45.5859 276.094 44.4844 276.774 43.5C277.477 42.4922 278.274 41.5312 279.164 40.6172C279.164 40.4766 279.188 40.3594 279.234 40.2656C279.305 40.1719 279.317 40.0312 279.27 39.8438C279.293 39.8672 279.34 39.8789 279.41 39.8789C279.598 39.8789 279.715 39.832 279.762 39.7383C279.809 39.6211 279.82 39.4922 279.797 39.3516C280.641 38.8125 281.402 38.1914 282.082 37.4883C282.785 36.7852 283.582 36.1992 284.473 35.7305C284.543 35.5195 284.66 35.3438 284.824 35.2031C284.988 35.0625 285.117 34.8984 285.211 34.7109C285.961 34.5 286.641 34.1836 287.25 33.7617C287.859 33.3398 288.504 32.9648 289.184 32.6367C289.559 32.4258 289.91 32.2852 290.238 32.2148C290.59 32.1211 290.965 32.0273 291.363 31.9336C291.504 31.8867 291.633 31.8516 291.75 31.8281C291.867 31.8047 291.996 31.793 292.137 31.793C292.559 31.793 292.969 31.875 293.367 32.0391C293.766 32.1797 294.176 32.25 294.598 32.25C294.715 32.25 294.809 32.25 294.879 32.25C294.973 32.2266 295.067 32.2031 295.16 32.1797C295.559 32.6719 296.063 33.0469 296.672 33.3047C296.813 33.6562 296.977 33.9609 297.164 34.2188C297.375 34.4766 297.586 34.7344 297.797 34.9922C298.008 35.2266 298.195 35.4961 298.359 35.8008C298.547 36.082 298.664 36.4219 298.711 36.8203ZM295.195 38.6484C295.195 38.5312 295.184 38.4258 295.16 38.332C294.926 38.2617 294.703 38.168 294.492 38.0508C294.281 37.9336 294.047 37.875 293.789 37.875C293.625 37.875 293.461 37.9102 293.297 37.9805C293.274 37.8164 293.203 37.6992 293.086 37.6289C292.992 37.5586 292.875 37.5 292.734 37.4531C292.617 37.3828 292.488 37.3359 292.348 37.3125C292.231 37.2656 292.125 37.1953 292.031 37.1016C291.961 36.9141 291.879 36.7266 291.785 36.5391C291.715 36.3281 291.574 36.1758 291.363 36.082C291.152 36.293 290.906 36.4688 290.625 36.6094C290.344 36.7266 290.051 36.8438 289.746 36.9609C289.465 37.0781 289.184 37.2188 288.902 37.3828C288.645 37.5469 288.422 37.7461 288.234 37.9805H287.602C287.461 38.2383 287.262 38.4375 287.004 38.5781C286.746 38.6953 286.524 38.8711 286.336 39.1055C285.961 39.293 285.609 39.5273 285.281 39.8086C284.977 40.0664 284.672 40.3477 284.367 40.6523C284.063 40.9336 283.758 41.2266 283.453 41.5312C283.172 41.8359 282.867 42.1172 282.539 42.375C282.234 43.0312 281.895 43.6055 281.52 44.0977C281.168 44.5664 280.828 45.0469 280.5 45.5391C280.195 46.0312 279.926 46.5703 279.692 47.1562C279.481 47.7188 279.375 48.4219 279.375 49.2656V49.6172C279.375 49.7344 279.387 49.8516 279.41 49.9688C279.715 50.2969 279.961 50.6484 280.149 51.0234C280.359 51.3984 280.699 51.668 281.168 51.832C281.637 52.0195 282.129 52.1016 282.645 52.0781C283.184 52.0547 283.699 52.1133 284.192 52.2539C285.317 52.043 286.395 51.7031 287.426 51.2344C288.481 50.7422 289.477 50.1562 290.414 49.4766C290.555 49.3594 290.719 49.2422 290.906 49.125C291.094 48.9844 291.246 48.8438 291.363 48.7031C291.481 48.5859 291.574 48.457 291.645 48.3164C291.738 48.1758 291.832 48.0469 291.926 47.9297C292.113 47.625 292.324 47.3203 292.559 47.0156C292.793 46.7109 293.039 46.4297 293.297 46.1719C293.414 45.6562 293.567 45.1641 293.754 44.6953C293.942 44.2031 294.129 43.7227 294.317 43.2539C294.504 42.7852 294.656 42.3047 294.774 41.8125C294.914 41.3203 294.984 40.8047 294.984 40.2656C294.984 40.1484 294.973 40.0195 294.949 39.8789C294.949 39.7383 294.938 39.6094 294.914 39.4922C295.102 39.2344 295.195 38.9531 295.195 38.6484ZM324.27 34.0781C324.223 34.3594 324.152 34.6055 324.059 34.8164C323.988 35.0039 323.977 35.2617 324.024 35.5898C323.789 35.6133 323.602 35.6953 323.461 35.8359C323.344 35.9531 323.238 36.0938 323.145 36.2578C323.074 36.4219 322.992 36.5977 322.899 36.7852C322.828 36.9492 322.734 37.1016 322.617 37.2422C322.805 38.0859 322.91 38.9414 322.934 39.8086C322.957 40.6758 323.016 41.5312 323.109 42.375C323.227 43.4531 323.402 44.5195 323.637 45.5742C323.895 46.6055 324.024 47.6602 324.024 48.7383C324.024 49.0664 324.012 49.3711 323.988 49.6523C323.988 49.9336 323.988 50.2266 323.988 50.5312C323.988 50.7188 323.988 50.918 323.988 51.1289C324.012 51.3164 324.024 51.5039 324.024 51.6914C324.024 52.3711 323.93 53.0508 323.742 53.7305C323.578 54.4102 323.449 55.0898 323.356 55.7695C323.074 56.0273 322.828 56.3086 322.617 56.6133C322.43 56.918 322.231 57.1992 322.02 57.457C321.809 57.7148 321.563 57.9375 321.281 58.125C321 58.3359 320.649 58.4766 320.227 58.5469C320.156 58.7812 320.016 58.957 319.805 59.0742C319.617 59.1914 319.453 59.3555 319.313 59.5664H319.242C318.656 59.5664 318.152 59.4844 317.731 59.3203C317.309 59.1562 316.91 58.9688 316.535 58.7578C316.184 58.5469 315.82 58.3242 315.445 58.0898C315.07 57.8555 314.637 57.668 314.145 57.5273C313.488 56.9883 312.891 56.4023 312.352 55.7695C311.813 55.1133 311.203 54.5273 310.524 54.0117C310.359 53.543 310.137 53.1562 309.856 52.8516C309.598 52.5469 309.34 52.1953 309.082 51.7969C308.965 51.6328 308.871 51.4805 308.801 51.3398C308.754 51.1992 308.684 51.0352 308.59 50.8477C308.52 50.6602 308.402 50.5312 308.238 50.4609C308.098 50.3906 307.969 50.3086 307.852 50.2148C307.664 49.4883 307.395 48.8203 307.043 48.2109C306.692 47.6016 306.281 47.0156 305.813 46.4531C305.672 46.7109 305.555 46.9922 305.461 47.2969C305.391 47.5781 305.32 47.8711 305.25 48.1758C305.18 48.457 305.086 48.75 304.969 49.0547C304.875 49.3359 304.746 49.5938 304.582 49.8281V49.9336C304.582 50.0508 304.629 50.1211 304.723 50.1445C304.817 50.168 304.863 50.2383 304.863 50.3555C304.863 50.3789 304.852 50.4023 304.828 50.4258C304.828 50.4492 304.828 50.4727 304.828 50.4961C304.711 50.5898 304.617 50.707 304.547 50.8477C304.5 50.9883 304.383 51.0703 304.195 51.0938C304.219 51.2109 304.231 51.3281 304.231 51.4453V51.7617C304.231 52.4414 304.149 53.1211 303.984 53.8008C303.844 54.4805 303.774 55.1719 303.774 55.875V56.332C303.774 56.4961 303.785 56.6484 303.809 56.7891C303.856 56.9297 303.926 57.0703 304.02 57.2109C304.113 57.3516 304.16 57.4805 304.16 57.5977C304.16 57.7617 304.09 57.9141 303.949 58.0547C304.113 58.1719 304.301 58.3008 304.512 58.4414C304.723 58.582 304.91 58.7344 305.074 58.8984C305.262 59.0859 305.414 59.2734 305.531 59.4609C305.649 59.6719 305.707 59.8945 305.707 60.1289C305.707 60.5273 305.578 60.8086 305.32 60.9727C305.063 61.1367 304.746 61.2656 304.371 61.3594C304.02 61.4531 303.645 61.5352 303.246 61.6055C302.871 61.6992 302.555 61.8516 302.297 62.0625H302.192C301.91 62.0625 301.699 61.9805 301.559 61.8164C301.418 61.6523 301.207 61.5703 300.926 61.5703C300.481 60.8438 300.176 60.0234 300.012 59.1094C299.848 58.2188 299.766 57.3633 299.766 56.543C299.766 55.5352 299.859 54.5273 300.047 53.5195C300.211 52.5117 300.422 51.5156 300.68 50.5312C300.914 49.5469 301.172 48.5742 301.453 47.6133C301.758 46.6289 302.039 45.6445 302.297 44.6602L302.332 44.5547C302.332 44.4375 302.297 44.3555 302.227 44.3086C302.18 44.2617 302.156 44.1914 302.156 44.0977C302.156 44.0508 302.168 44.0273 302.192 44.0273C302.262 43.793 302.332 43.5703 302.402 43.3594C302.496 43.1484 302.567 42.9141 302.613 42.6562C302.754 42 302.848 41.332 302.895 40.6523C302.965 39.9492 303 39.2578 303 38.5781C303.024 37.8984 303.047 37.2188 303.07 36.5391C303.117 35.8359 303.199 35.1445 303.317 34.4648C303.504 34.2773 303.68 34.0781 303.844 33.8672C304.008 33.6562 304.219 33.4688 304.477 33.3047C304.945 33.3281 305.414 33.3984 305.883 33.5156C306.352 33.6328 306.797 33.8203 307.219 34.0781C307.5 35.0859 307.688 36.0938 307.781 37.1016C307.899 38.1094 308.086 39.1172 308.344 40.125V40.2305C308.344 40.3477 308.402 40.4062 308.52 40.4062C308.66 40.3828 308.766 40.418 308.836 40.5117C308.789 40.582 308.754 40.6641 308.731 40.7578C308.731 40.8516 308.731 40.9453 308.731 41.0391V41.6367C308.777 41.8242 308.836 42.0234 308.906 42.2344C308.977 42.4453 309.129 42.5742 309.363 42.6211C309.481 43.3711 309.656 44.0625 309.891 44.6953C310.125 45.3281 310.395 45.9375 310.699 46.5234C311.004 47.1094 311.332 47.6953 311.684 48.2812C312.035 48.8438 312.399 49.4414 312.774 50.0742C313.359 50.5195 313.863 51.0352 314.285 51.6211C314.707 52.1836 315.129 52.7344 315.551 53.2734C315.996 53.7891 316.488 54.2461 317.027 54.6445C317.59 55.043 318.317 55.2891 319.207 55.3828C319.324 55.2891 319.406 55.1602 319.453 54.9961L319.629 54.5039C319.699 54.3398 319.77 54.1992 319.84 54.082C319.934 53.9414 320.063 53.8359 320.227 53.7656C320.274 53.1094 320.32 52.4414 320.367 51.7617C320.438 51.082 320.59 50.4375 320.824 49.8281C320.707 49.6172 320.649 49.3594 320.649 49.0547C320.649 48.8203 320.66 48.5977 320.684 48.3867C320.731 48.1758 320.754 47.9648 320.754 47.7539C320.754 47.3086 320.66 46.9453 320.473 46.6641C320.473 46.5 320.484 46.3359 320.508 46.1719C320.531 45.9844 320.602 45.8086 320.719 45.6445C320.531 45.1758 320.379 44.6836 320.262 44.168C320.168 43.6523 320.121 43.125 320.121 42.5859C320.121 42.2812 320.156 41.9648 320.227 41.6367C320.086 41.2852 319.992 40.875 319.945 40.4062L319.805 38.9648C319.758 38.4727 319.688 38.0156 319.594 37.5938C319.5 37.1719 319.324 36.832 319.067 36.5742C319.207 36.3633 319.277 36.1172 319.277 35.8359C319.277 35.3672 319.207 34.9219 319.067 34.5C318.926 34.0781 318.856 33.6328 318.856 33.1641C318.856 32.8359 318.926 32.5078 319.067 32.1797C319.582 32.2031 320.086 32.2617 320.578 32.3555C321.094 32.4258 321.598 32.4609 322.09 32.4609C322.231 32.6484 322.395 32.8008 322.582 32.918C322.77 33.0352 322.969 33.1523 323.18 33.2695C323.391 33.3633 323.59 33.4688 323.777 33.5859C323.988 33.7031 324.152 33.8672 324.27 34.0781Z" fill="#1D1D1D"/>
<path d="M333.771 54.8515C333.462 54.8926 333.131 54.9441 332.82 54.9601L322.303 54.9601C320.83 54.8941 319.385 54.5421 318.094 53.8188C316.61 52.9875 316.088 51.9923 316.272 50.3632L316.404 49.2931C316.516 48.537 316.512 48.2256 316.503 47.4657L316.508 45.542C316.52 44.9825 316.586 44.4328 316.588 43.8743L316.575 39.6083C316.567 39.4157 316.53 39.2334 316.512 39.0429L316.468 38.3779L315.518 38.2744C313.708 37.9915 312.128 36.9338 310.793 35.725L310.053 34.9892C308.957 33.8877 309.163 33.9625 309.91 32.7778L311.188 30.6531L312.926 27.197C313.681 25.6345 314.204 24.4172 315.775 23.4614C316.308 23.1368 316.92 22.9658 317.506 22.7607L321.199 21.4063C321.608 21.2542 322.013 21.0599 322.439 20.9649C322.858 20.9336 323.308 21.3219 323.666 21.507C325.83 22.6261 329.391 22.6041 331.496 21.3617C331.834 21.1622 332.196 20.8217 332.625 20.9925L337.653 22.8596C338.966 23.3087 339.922 23.8445 340.784 24.9835C341.365 25.7511 341.66 26.6384 342.103 27.4741L343.79 30.7478L345.19 33.1164C345.683 33.8781 345.782 34.0162 345.088 34.7563L344.198 35.6151C342.52 37.2021 340.771 38.2851 338.439 38.3649C338.359 38.7834 338.388 39.2172 338.371 39.6406L338.321 40.4257L338.358 46.9415C338.38 47.8407 338.367 48.3841 338.478 49.2803L338.623 50.4886C339.079 53.2707 336.061 54.561 333.771 54.8515ZM332.25 22.496L332.227 22.5041C332.068 22.562 331.925 22.6535 331.776 22.7322C329.311 24.0353 325.794 23.9793 323.296 22.8433L322.566 22.4834C322.569 22.8105 322.661 23.2226 322.785 23.522L323.014 24.0734C323.129 24.3295 323.303 24.5707 323.467 24.7975C324.136 25.5992 324.944 26.1362 325.926 26.493C328.799 27.5365 332.008 25.6614 332.317 22.5312C332.288 22.5014 332.295 22.4963 332.25 22.496ZM321.124 22.871C320.601 23.099 320.06 23.2813 319.524 23.4738L318.356 23.9075C316.235 24.6414 315.508 24.9579 314.464 27.1474L312.867 30.3602C312.259 31.5448 311.618 32.7578 310.837 33.8379L311.858 34.8317C313.064 35.908 314.61 36.9135 316.273 36.9749C316.163 36.3483 316.068 35.7291 315.892 35.1159L315.567 34.0876C315.516 33.929 315.443 33.7726 315.423 33.6054C315.37 33.1502 315.737 32.757 316.203 32.8342L316.23 32.8386C317.006 32.9746 317.476 35.8506 317.607 36.7583L317.838 38.4232C317.899 38.9335 317.939 39.4472 317.942 39.9606L317.943 43.3719C317.943 43.9904 317.919 44.4166 317.878 45.0143L317.857 47.8887C317.857 48.2681 317.886 48.67 317.813 49.0439C317.702 49.6067 317.471 51.0457 317.649 51.5351L317.745 51.7676C317.797 51.8795 317.893 51.9705 317.977 52.0595C319.246 53.407 321.328 53.5039 323.051 53.5851L330.413 53.6274L332.789 53.5724C334.143 53.5109 336.364 52.972 337.18 51.7461C337.576 50.9042 337.099 49.7627 337.019 48.9205L337.015 48.8825C336.959 48.3316 336.987 47.7566 336.986 47.2025L336.984 40.8917C336.984 40.268 336.956 39.6287 337.002 39.0074L337.1 38.1894C337.248 36.8256 337.45 35.5068 337.842 34.1885C338.016 33.6039 338.152 32.9415 338.824 32.7873C339.017 32.8374 339.219 32.8821 339.33 33.068L339.417 33.2413C339.54 33.5168 339.37 33.8549 339.29 34.1155L339.007 35.0963C338.835 35.7293 338.73 36.3631 338.593 37.0022C340.647 36.9127 342.624 35.3973 343.969 33.9238L344.043 33.8391L342.808 31.8104L340.601 27.4968C339.512 25.1867 339.16 24.8931 336.953 24.0663L333.673 22.8439C333.586 23.2383 333.529 23.6227 333.406 24.0111C332.641 26.4385 330.373 28.0013 327.877 28.1559C327.472 28.1811 327.043 28.1766 326.644 28.0885C323.873 27.4764 321.915 26.0182 321.237 23.1299C321.218 23.0477 321.206 22.9401 321.16 22.8697L321.124 22.871Z" fill="black"/>
<path d="M327.587 30.7294C326.756 30.8902 326.45 29.6851 327.333 29.3331C328.14 29.196 328.448 30.4284 327.587 30.7294Z" fill="black"/>
<path d="M330.171 43.3875L329.359 43.9641C329.003 44.2067 327.724 45.0034 327.34 44.9123C327.174 44.8729 327.025 44.7697 326.882 44.6802L326.249 44.2663C323.902 42.6268 321.138 39.8611 320.632 37.0131C320.199 34.5789 321.801 32.3201 324.302 32.0324C325.341 31.9739 326.517 32.182 327.382 32.795C327.485 32.8677 327.47 32.9095 327.577 32.8417C330.059 31.2651 333.099 32.0383 334.195 34.824L334.393 35.498C334.433 35.6239 334.436 35.7414 334.45 35.871C334.79 38.953 332.463 41.6274 330.171 43.3875ZM324.645 33.3924C323.816 33.4559 323.102 33.7505 322.547 34.3859C320.312 36.9478 324.487 41.2552 326.527 42.7629C326.836 42.9913 327.138 43.2505 327.467 43.4477C328.307 43.0612 329.12 42.4642 329.845 41.8992C331.477 40.5761 333.103 38.4895 333.094 36.2981C333.083 33.9772 330.519 32.7429 328.559 33.858C328.202 34.0611 327.874 34.4144 327.443 34.4211C326.931 34.4291 326.3 33.3178 324.645 33.3924Z" fill="black"/>
<path d="M329.383 41.0251C328.933 41.4044 328.414 41.7782 327.891 42.0494C327.151 42.4335 326.585 41.7534 326.09 41.294C324.786 40.0862 322.527 37.9581 323.789 36.0427C324.129 35.5263 324.628 35.2478 325.219 35.1233C326.102 35.0544 326.748 35.3116 327.465 35.8415L327.909 35.5323C329.306 34.6773 331.03 35.1578 331.504 36.7784C332.024 38.5584 330.673 39.9765 329.383 41.0251ZM325.505 36.484C325.022 36.5566 324.697 36.9557 324.797 37.4521L324.821 37.5619C324.986 38.2422 326.749 40.1467 327.466 40.7223C328.095 40.3189 328.698 39.855 329.229 39.3283C329.727 38.8286 330.333 38.1172 330.216 37.3557L330.21 37.313C330.029 36.0654 328.714 36.448 328.1 37.0979C327.97 37.236 327.863 37.3686 327.68 37.4412L327.651 37.4531C327.08 37.6737 326.763 36.9505 326.321 36.6903L326.281 36.6666C326.05 36.5294 325.77 36.485 325.505 36.484Z" fill="black"/>
<path d="M16.1974 60.6801C14.1611 60.12 12.614 58.1416 12.5176 56.0426C12.4932 55.5125 12.5748 55.0141 12.6765 54.4969L13.6622 50.1363L14.1842 47.1856C14.2376 46.8433 14.232 46.4918 14.2356 46.1461C14.106 46.5916 13.9035 47.0285 13.7211 47.4545L10.6693 54.3082L9.38124 57.5074C9.10491 58.2936 8.92327 59.0875 8.79249 59.9098C8.70038 60.4887 8.76263 61.4401 8.07746 61.6597L7.96923 61.6931C7.65366 61.7749 7.23352 61.6571 6.92335 61.5764C5.19441 61.1266 2.87075 59.9994 1.57569 58.697C1.34216 58.4621 1.11839 58.2272 1.24648 57.8779C1.42408 57.3936 1.67841 56.9184 1.8824 56.4425L3.94906 51.6241L8.89248 38.4262L10.1844 34.0095L10.543 32.3547C10.6433 31.8142 10.7246 31.2671 10.8792 30.7385C11.4744 28.7033 12.9889 27.0329 14.9422 26.2044C16.0543 25.7328 17.2961 25.5154 18.4812 25.3042C19.2405 25.1689 19.4168 25.9885 19.7128 26.4762C20.7307 28.1533 22.7411 28.4708 24.5373 28.4658C24.8331 28.4649 25.165 28.4908 25.4535 28.4311L26.0169 28.3552C27.1675 28.172 28.4032 27.6706 29.0658 26.6637C29.4542 26.0734 29.5797 25.3076 30.3939 25.1836C30.6568 25.2008 30.9206 25.3081 31.1803 25.3602C31.7774 25.4798 32.3935 25.5875 32.977 25.7615C35.4016 26.4848 37.3791 28.4105 38.0719 30.8622C38.2753 31.5817 38.3552 32.3317 38.508 33.0621L38.7075 33.9427C38.8146 34.3633 38.9581 34.7853 39.0526 35.2066L40.5507 40.023L41.4159 42.4605L45.929 53.8492L47.4314 57.1234C47.5974 57.4967 47.8852 57.9682 47.6109 58.3622C46.5774 59.8471 43.317 61.3561 41.647 61.6713C40.1198 61.9595 40.1681 60.8587 40.0005 59.7362L39.8149 58.6739C39.3779 56.6741 38.5453 54.8269 37.71 52.9673L34.7342 46.0623C34.7295 46.6747 34.8196 47.2625 34.908 47.8672L35.3708 50.5498C35.4132 50.8233 35.4605 51.0937 35.5066 51.367L35.6411 52.0373C35.6674 52.1575 35.668 52.285 35.7053 52.4025L36.1736 54.5108C36.226 54.6795 36.2236 54.8533 36.268 55.02L36.2777 55.0553C36.3223 55.225 36.322 55.419 36.3324 55.5941C36.4636 57.8111 35.0074 59.8586 32.932 60.5967C30.9774 61.2918 29.9451 60.4673 28.0694 60.9362C27.3591 61.1137 27.1591 61.1576 26.4324 61.1578L23.2178 61.157C22.8942 61.1566 22.4947 61.2016 22.1804 61.126L21.4907 60.9784C20.1918 60.6748 19.6434 60.7597 18.4218 60.8946C17.6717 60.9773 16.9168 60.8987 16.1974 60.6801ZM30.751 26.8633C29.498 29.259 27.1026 30.0721 24.4934 30.0639C22.1469 30.0566 19.2285 29.3171 18.2268 26.9251C18.2121 26.8899 18.223 26.8948 18.1854 26.902C15.4799 27.4221 13.0754 28.3463 12.27 31.3567C12.1858 31.6715 12.1643 31.9757 12.1075 32.2928L11.3848 35.441L9.95677 40.0832L8.17927 44.9989L4.73329 53.7457L2.9127 57.823C3.9331 58.6268 5.19873 59.2745 6.39624 59.7544C6.6699 59.864 6.96207 59.9308 7.23287 60.0398L7.31715 59.4319C7.45763 58.6549 7.65512 57.8773 7.92254 57.1341L9.68612 52.8127L13.6892 43.4928C13.756 43.3015 13.7251 43.272 13.6781 43.073L13.4148 42.0452C13.3456 41.7612 13.2353 41.3177 13.3539 41.0426L13.3665 41.0117C13.5207 40.6503 13.972 40.4483 14.3358 40.6134C14.6299 40.7469 14.7969 41.1528 14.9098 41.441L15.2791 42.4818C16.2048 44.7275 15.6594 48.3194 15.0874 50.5582L14.6766 52.2599C14.599 52.656 14.6475 52.5579 15.0258 52.7993L16.3004 53.6821C18.3901 55.0566 19.5947 53.7518 21.5719 53.7281C22.2523 53.72 22.9048 53.9269 23.5686 54.0368C25.1167 54.2933 26.3016 53.6436 27.645 53.7314C29.4622 53.8501 30.8681 54.9946 32.7833 53.75C33.2726 53.4321 33.6924 53.0081 34.1757 52.6864L33.213 46.6573C32.9801 45.5783 33.6664 41.5213 34.1821 40.7775C34.4149 40.4418 34.9087 40.3511 35.2391 40.5999C35.6169 40.8843 35.5906 41.4346 35.5413 41.8519L35.3753 43.2645C35.3609 43.3539 35.4178 43.4544 35.4467 43.5387L38.2549 50.4382L40.7161 56.1363L41.2351 57.8056C41.3311 58.3755 41.4704 58.9277 41.5434 59.5064C41.5674 59.6963 41.5692 59.8859 41.6079 60.0741C43.0558 59.6948 44.9799 58.8624 46.0543 57.7635L44.5828 54.5895L40.6151 44.7459L38.9016 39.9698L37.2255 34.3395L36.858 32.6134C36.7847 32.2133 36.7315 31.8119 36.629 31.4169C36.1766 29.6732 34.858 28.1721 33.1761 27.5191C32.3811 27.2104 31.5538 27.1129 30.751 26.8633ZM14.3182 54.1759C14.1846 54.6391 14.0346 55.3291 14.0164 55.7965C13.9417 57.7091 15.8671 59.3506 17.7134 59.3745C18.0774 59.3792 18.4183 59.2867 18.7739 59.2296C20.4616 58.9583 20.8562 59.3303 22.409 59.5889C23.1634 59.7145 25.9782 59.7213 26.788 59.6207C27.5044 59.5317 28.1681 59.202 28.8989 59.157C29.6738 59.1092 30.1693 59.2725 30.8559 59.3193C32.1129 59.4051 33.3381 58.875 34.1094 57.8693L34.3813 57.4608C34.8295 56.6486 34.9477 55.7458 34.6952 54.8507C34.6692 54.7585 34.6062 54.4059 34.5518 54.354L33.9061 54.8355C32.2246 55.995 30.581 56.0263 28.709 55.5077C26.9841 55.0298 26.3346 55.6136 24.7725 55.6301L23.7477 55.6219C23.0262 55.5966 22.3154 55.2502 21.5354 55.2777C20.8588 55.3015 20.2664 55.538 19.6177 55.6922C17.4045 56.2182 16.0434 55.4108 14.3182 54.1759Z" fill="black"/>
</svg>
